
<svg xmlns="http://www.w3.org/2000/svg" xml:space="preserve" viewBox="0 0 87.76 78.85"><style>.st0 {
      fill: #192E45;
    }
  </style><path d="M2.89 24.65c13.94 3.64 28.46 2.92 42.62 5.06.13-.29.27-.57.4-.86-6.69-.62-13.4-1.17-20.08-1.87-6.53-.68-12.87-2.28-19.36-3.12-.08.29-.17.57-.25.86 6.5.07 12.89 1.33 19.33 2.07 6.39.73 12.81.72 19.23.69.03-.29.07-.58.1-.86-12.17.05-24.22-1.77-36.21-3.6-.13.29-.27.57-.4.86 10.79.74 21.65.31 32.37 1.9.13-.29.27-.57.4-.86-11.83-1.25-23.66-2.51-35.49-3.76-.57-.06-1.18.71-.4.86 10.44 1.96 21.14 1.9 31.58 3.82.08-.29.17-.57.25-.86-5.48-.08-10.96-.16-16.43-.23-.54-.01-.94.73-.25.86 7.79 1.51 15.84.87 23.58 2.71.51.12 1.37-.62.67-.79-7.83-1.87-15.97-1.25-23.85-2.78-.08.29-.17.57-.25.86 5.48.08 10.96.16 16.43.23.54.01.94-.73.25-.86-10.45-1.93-21.14-1.86-31.58-3.82-.13.29-.27.57-.4.86 11.83 1.25 23.66 2.51 35.49 3.76.57.06 1.18-.74.4-.86-10.72-1.59-21.59-1.16-32.37-1.9-.56-.04-1.2.73-.4.86 12.1 1.85 24.24 3.67 36.51 3.61.67 0 .89-.87.1-.86-6.64.03-13.28.01-19.88-.8-6.22-.76-12.4-1.9-18.68-1.96-.53-.01-.96.77-.25.86 6.49.84 12.84 2.44 19.36 3.12 6.69.7 13.39 1.25 20.08 1.87.57.05 1.19-.74.4-.86-14.06-2.13-28.51-1.39-42.35-5-.51-.13-1.37.61-.67.79z" class="st0"></path><path d="M49.82 3.15c-1.52 8.49-3.1 17.07-6.79 24.93.38-.06.76-.13 1.15-.19a77.392 77.392 0 0 0 6.19-21.64c.05-.41-.98.02-1.1.12-.9.77-1.25 1.89-1.63 2.98-.51 1.45-.94 2.93-1.38 4.4-.56 1.91-1.08 3.83-1.58 5.76-1.08 4.18-2.2 8.43-2.76 12.72-.04.34 1.07.1 1.15-.19 2.62-9.48 4.62-19.15 6.62-28.77.07-.34-1.03-.06-1.15.19-3.85 8.16-5.05 17.21-8.18 25.62-.1.27 1.01.09 1.15-.19 2.12-4.3 2.26-9.12 3.22-13.74 1.02-4.89 3.34-9.29 5.69-13.65-.38.06-.76.13-1.15.19-2.7 9.03-4.34 18.33-4.89 27.74-.01.21 1.14.06 1.16-.31.55-9.37 2.19-18.63 4.88-27.62.09-.32-1.01-.06-1.15.19-2.35 4.36-4.68 8.76-5.69 13.65-.96 4.62-1.11 9.44-3.22 13.74.38-.06.76-.13 1.15-.19 3.13-8.42 4.32-17.46 8.18-25.62-.38.06-.76.13-1.15.19-2 9.63-4.01 19.29-6.62 28.77.38-.06.76-.13 1.15-.19.54-4.18 1.63-8.31 2.68-12.38.49-1.89.99-3.78 1.54-5.66.39-1.33.78-2.65 1.21-3.97.42-1.28.78-2.81 1.83-3.72l-1.1.12c-1 7.48-3.08 14.76-6.19 21.64-.1.23 1 .12 1.15-.19 3.69-7.86 5.27-16.44 6.79-24.93.04-.3-1.11-.11-1.16.2z" class="st0"></path><path d="M87.67 42.23c-6.81-6.4-14.59-11.79-20.98-18.63-3.16-3.38-6.04-6.99-9.04-10.51-3.16-3.71-6.64-7.04-9.02-11.35-.35.17-.71.33-1.06.5A56.19 56.19 0 0 0 56 9.2c.31.21 1.34-.12.98-.58-2.34-2.94-4.82-5.77-7.42-8.49-.33-.34-1.37-.03-1.06.5 1.9 3.3 4.32 6.35 6.57 9.43 2.1 2.87 4.31 5.67 6.84 8.18 2.68 2.67 5.5 5.15 8.03 7.98 2.3 2.57 4.46 5.25 6.75 7.83 2.69 3.02 5.58 5.82 8.79 8.29.26-.23.52-.47.79-.7-1.5-.33-3.11-.68-4.2-1.85-1.07-1.15-1.87-2.58-2.86-3.81-.33.19-.65.38-.98.58 2.62 1.84 5.43 3.37 8.38 4.59.28.11 1.26-.25.87-.63-2.2-2.13-4.79-3.72-7.4-5.28-2.9-1.74-5.85-3.43-8.82-5.05-.39-.21-1.42.2-.9.65 4.9 4.26 9.9 8.41 15 12.44.3-.22.6-.43.9-.65l-2-1.43c-.4-.28-1.42.27-.9.65l2 1.43c.39.28 1.41-.24.9-.65-5.1-4.03-10.1-8.17-15-12.44-.3.22-.6.43-.9.65 2.83 1.55 5.64 3.15 8.41 4.81 2.67 1.6 5.39 3.19 7.64 5.38l.87-.63c-2.88-1.19-5.61-2.7-8.16-4.49-.32-.22-1.34.13-.98.58 1.06 1.31 1.9 2.91 3.11 4.07 1.17 1.12 2.8 1.5 4.33 1.84.33.07 1.33-.29.79-.7-5.67-4.35-10.01-9.86-14.69-15.19-2.49-2.84-5.21-5.39-7.94-7.99-2.54-2.43-4.79-5.13-6.88-7.95-2.52-3.38-5.2-6.77-7.31-10.42-.35.17-.71.33-1.06.5 2.6 2.72 5.07 5.54 7.42 8.49.33-.19.65-.38.98-.58-2.98-2-5.74-4.27-8.27-6.81-.33-.33-1.36-.04-1.06.5 2.38 4.3 5.86 7.64 9.02 11.35 2.99 3.52 5.88 7.13 9.04 10.51 6.39 6.84 14.16 12.23 20.98 18.63.37.33 1.47-.14 1.07-.51z" class="st0"></path><path d="M82.09 40.72c-3.92 1.85-7.05 5.05-10.41 7.72-3.59 2.86-7.3 5.58-11 8.3-7.19 5.29-14.39 10.63-20.72 16.96.35.02.7.03 1.05.05 1.06-4.29 1.63-8.57 2.04-12.96.41-4.29 1.16-8.47 2.21-12.65.11-.46-1.06-.29-1.16.13-1.05 4.18-1.8 8.36-2.21 12.65-.42 4.39-.98 8.67-2.04 12.96-.12.49.9.2 1.05.05 6.26-6.27 13.39-11.56 20.51-16.8 3.42-2.51 6.84-5.02 10.17-7.64 3.55-2.79 6.87-6.3 10.98-8.25.72-.34.07-.78-.47-.52z" class="st0"></path><path d="M43.11 46.42c-1.14 9.43-3.05 18.96-2.62 28.5.01.28 1.17.07 1.16-.31-.11-2.98-.93-5.86-1.2-8.82-.25-2.8.04-5.67.53-8.44.65-3.69 1.98-7.38 1.53-11.18-.04-.3-1.13-.04-1.15.24-1.03 10.19-1.8 20.4-2.82 30.59-.04.44.97.03 1.11-.11 1.68-1.74.92-3.78.74-5.93-.02-.29-1.19-.06-1.16.31.17 2.01.94 4.02-.64 5.65.37-.04.74-.07 1.11-.11 1.01-10.19 1.79-20.4 2.82-30.59l-1.15.24c.47 3.98-1.02 7.87-1.64 11.75-.4 2.5-.63 5.1-.44 7.63.24 3.04 1.11 5.99 1.22 9.05.39-.1.77-.21 1.16-.31-.43-9.5 1.47-18.98 2.61-28.37.03-.33-1.13-.12-1.17.21z" class="st0"></path><path d="M83.73 43.43c-14.4 10.35-28.63 20.92-42.7 31.7-.49.38.66.3.91.11 14.07-10.78 28.3-21.35 42.69-31.7.5-.36-.65-.29-.9-.11z" class="st0"></path><path d="M84.94 42.63c-5.78 5.3-11.76 10.4-18.09 15.04-6.29 4.61-12.98 8.53-19.7 12.48-3.86 2.28-7.68 4.62-11.32 7.24-.59.42.21.68.61.48 5.66-2.73 11.2-5.68 16.62-8.86-.25-.14-.49-.27-.74-.41-4.74 3.46-9.64 6.7-14.67 9.72.25.14.49.27.74.41 6.64-5 13.75-9.32 20.52-14.14a191.55 191.55 0 0 0 18.37-14.9c3.33-3.07 6.54-6.25 9.65-9.55.48-.51-.57-.51-.84-.33-10.64 6.93-21.91 13.07-31.24 21.81-.4.38.28.53.56.45 11.43-3.29 19.28-12.61 28.53-19.45-.25-.14-.49-.27-.74-.41C75 48.62 66.34 54.4 57.27 59.52c-.68.38.32.65.74.41 9.06-5.12 17.73-10.9 25.93-17.31.62-.49-.34-.71-.74-.41-9.05 6.69-16.8 15.99-27.97 19.21.19.15.37.3.56.45 9.26-8.67 20.47-14.76 31.03-21.64l-.84-.33C80.6 45.61 74.88 50.99 68.83 56c-6.3 5.21-12.97 9.86-19.77 14.39-3.86 2.57-7.7 5.15-11.41 7.94-.65.49.34.65.74.41 5.04-3.02 9.93-6.26 14.67-9.72.65-.48-.34-.64-.74-.41-5.34 3.12-10.79 6.03-16.36 8.72.2.16.41.32.61.48 6.47-4.66 13.51-8.41 20.31-12.55 6.59-4.02 12.83-8.56 18.79-13.46 3.49-2.87 6.89-5.86 10.22-8.91.51-.48-.63-.55-.95-.26z" class="st0"></path><path d="M82.17 41.27c-13 12.14-27.57 22.37-42.11 32.55-.65.46.33.67.74.41l14.04-9c4.52-2.9 9.14-5.71 13.41-8.98.62-.48-.34-.71-.74-.41-4.27 3.27-8.88 6.08-13.41 8.98l-14.04 9c.25.14.49.27.74.41C55.41 64 70.06 53.71 83.11 41.51c.51-.47-.63-.54-.94-.24zM41.9 47.96c-5.38 2.31-11.31 2.99-17.1 3.43-6.21.47-12.43.78-18.65 1.16-.41.02-1.03.6-.3.66 6.29.51 12.58 1.01 18.88 1.52 3.07.25 6.14.51 9.21.74 2.46.18 4.93.18 7.22-.85.21-.1.59-.5.12-.56-10.56-1.32-21.2-1.99-31.84-2-.14.22-.29.44-.44.66 11.14-.53 22.26.73 33.39.47.41-.01 1.25-.6.45-.67L9.67 49.88l-.3.66c5.24-.77 10.7.13 15.96.3 5.34.17 10.68.12 16.01-.12.4-.02 1.26-.6.45-.67-11.78-.92-23.58-1.46-35.38-2-.3-.01-1.24.52-.58.65a277.13 277.13 0 0 0 31.02 4.33c.45.04 1.23-.6.45-.67-10.33-.85-20.6-2.29-30.77-4.3-.19.22-.39.43-.58.65 11.8.53 23.61 1.07 35.38 2 .15-.22.3-.44.45-.67-5.5.25-11 .29-16.5.1-5.21-.18-10.57-1.03-15.76-.27-.38.06-1.05.6-.3.66l33.17 2.64c.15-.22.3-.44.45-.67-11.14.26-22.26-1-33.39-.47-.42.05-1.25.69-.45.69 10.56.01 21.11.67 31.58 1.97l.12-.56c-2.57 1.15-5.45.74-8.17.52-2.94-.24-5.88-.47-8.83-.71-5.8-.47-11.6-.93-17.41-1.4-.09.22-.19.44-.29.66 6.5-.4 13-.7 19.49-1.23 5.72-.47 11.55-1.24 16.87-3.52.75-.32.07-.71-.46-.49z" class="st0"></path><path d="M40.75 54.42a262.604 262.604 0 0 0-33.89-.84c-.37.01-1.25.59-.48.56 11.22-.45 22.45-.17 33.64.83.3.03 1.34-.49.73-.55zM5.78 25.4c-1.44 8.52-2.45 17.1-3.03 25.72-.03.47 1.13.25 1.16-.14.58-8.62 1.6-17.2 3.03-25.72.07-.45-1.09-.25-1.16.14z" class="st0"></path><path d="M6.23 26.16C4.55 34.8 3.97 43.6 4.49 52.39c.03.45 1.06.03 1.16-.23C7.1 48.51 7.3 44.3 7.89 40.45c.63-4.19 1.27-8.38 1.9-12.57-.39.05-.77.09-1.16.14-.86 8.46-1.11 16.95-1.36 25.44-.01.51 1.05.22 1.16-.14 2.63-8.81 1.02-18.2 3.42-27.05-.39.08-.77.15-1.16.23.12 9.31.25 18.62.37 27.92.39-.1.77-.21 1.16-.31-.91-9.04 1.13-17.96 3.39-26.65.11-.43-1.06-.26-1.16.14-2.27 8.75-4.3 17.72-3.39 26.82.04.41 1.16.12 1.16-.31-.12-9.31-.25-18.62-.37-27.92-.01-.41-1.08-.08-1.16.23-2.4 8.85-.79 18.25-3.42 27.05.39-.05.77-.09 1.16-.14.24-8.49.5-16.99 1.36-25.44.05-.47-1.1-.25-1.16.14-.63 4.19-1.26 8.38-1.9 12.56-.58 3.85-.78 8.07-2.24 11.71.39-.08.77-.15 1.16-.23-.51-8.72.07-17.47 1.74-26.06.09-.44-1.08-.26-1.16.15z" class="st0"></path><path d="M7.31 25.78c-.99 8.95-5.08 17.23-5.91 26.21-.05.59 1 .48 1.15.04 1.48-4.39 3.87-8.41 5.14-12.88 1.25-4.4 1.69-9.02 3.56-13.23-.38-.01-.76-.03-1.15-.04-.34 8.64-.92 17.28-1.72 25.89-.06.62 1.13.48 1.18-.07.8-8.61 1.38-17.25 1.72-25.89.02-.62-.96-.46-1.15-.04C8.26 29.99 7.82 34.59 6.57 39c-1.27 4.46-3.66 8.49-5.14 12.88.38.01.76.03 1.15.04.83-8.98 4.92-17.26 5.91-26.21.06-.62-1.12-.49-1.18.07zM42.61 23.85c-13.02 1.33-25.84-2.37-38.83-2.44-.11 0-.61.21-.31.27 4.57.82 9.14 1.64 13.71 2.45.12-.09.25-.18.37-.26-5.72-.38-11.42-1.03-17.09-1.94-.12.09-.25.18-.37.26l12.68 1.92c.12-.09.25-.18.37-.26-3.58-.21-7.15-.52-10.71-.92-.11-.01-.62.21-.42.25 3.36.79 6.74 1.48 10.15 2.06.12-.09.25-.18.37-.26-2.95-.3-5.87-.74-8.78-1.32-.14.08-.28.17-.42.25 5.57.27 11.1.93 16.58 1.99.12-.09.25-.18.37-.26-3.72-.65-7.44-1.3-11.15-1.95-.12.09-.25.18-.37.26 6.54 1.04 13.1 1.94 19.69 2.7.14.02.67-.23.37-.26-6.58-.76-13.14-1.66-19.69-2.7-.14-.02-.67.21-.37.26 3.72.65 7.44 1.3 11.15 1.95.14.03.67-.21.37-.26-5.47-1.06-11.01-1.72-16.58-1.99-.1 0-.63.21-.42.25 2.94.59 5.9 1.04 8.88 1.34.13.01.68-.21.37-.26-3.37-.57-6.72-1.26-10.05-2.04-.14.08-.28.17-.42.25 3.56.4 7.13.71 10.71.92.13.01.68-.22.37-.26L.46 21.93c-.14-.02-.67.22-.37.26 5.66.91 11.36 1.56 17.09 1.94.13.01.68-.21.37-.26-4.57-.82-9.14-1.64-13.71-2.45-.1.09-.2.18-.31.27 12.99.06 25.8 3.76 38.83 2.44.18-.03.63-.32.25-.28zM49.4 8.02c2.99 3.5 6.16 6.84 9.49 10.02.15.14.69-.01.53-.24-2.53-3.71-6.46-6.25-8.69-10.19-.18.08-.36.16-.53.24 2.29 2.02 4.52 4.09 6.69 6.23.12.12.65.04.56-.2-.66-1.74-1.4-3.45-2.21-5.12-.11-.22-.68-.05-.58.16.81 1.67 1.55 3.38 2.21 5.12.19-.07.37-.13.56-.2-2.18-2.14-4.41-4.21-6.69-6.23-.15-.14-.68-.01-.53.24 2.23 3.94 6.16 6.48 8.69 10.19.18-.08.36-.16.53-.24-3.33-3.18-6.5-6.52-9.49-10.02-.15-.17-.71.05-.54.24z" class="st0"></path><path d="M11.07 49.94c9.8 1.39 19.66 2.24 29.55 2.54.09 0 .6-.21.34-.31-4.07-1.47-8.36-1.85-12.61-2.42-4.59-.62-9.11-1.61-13.58-2.81-.1.11-.19.22-.29.32 6.59.26 13.14 1 19.61 2.23.07-.11.14-.21.22-.32-5.47.32-10.85-.8-16.25-1.53-5.02-.68-10.08-1.02-15.14-1.35v.29c1.71-.59 3.48-.77 5.27-.54.18.02.68-.28.35-.32-2.01-.25-3.95-.04-5.86.62-.2.07-.24.27 0 .29 5.5.36 10.99.74 16.45 1.54 5.01.73 10 1.63 15.08 1.33.13-.01.52-.26.22-.32a133.61 133.61 0 0 0-19.74-2.25c-.15-.01-.62.24-.29.32 4.32 1.17 8.69 2.14 13.13 2.75 4.36.6 8.79.94 12.96 2.45.11-.1.23-.2.34-.31-9.85-.3-19.67-1.15-29.43-2.53-.16-.01-.66.29-.33.33zM71.8 25.57c-1.31-2.04-3.1-3.73-4.69-5.54-1.68-1.92-3.3-3.9-4.86-5.93-3.11-4.06-5.93-8.33-8.48-12.76-.18.08-.35.17-.53.25a67.2 67.2 0 0 1 10.54 16.65c.19-.07.37-.13.56-.2-2.2-4.26-5.77-7.49-9.3-10.63-.16-.14-.63.05-.49.29 2.05 3.34 4.93 5.92 7.76 8.58 1.95 1.84 3.79 3.8 5.63 5.75 4.03 4.29 7.9 8.78 12.23 12.77.18.17.73-.07.53-.25-4.33-3.99-8.2-8.49-12.23-12.77-1.84-1.95-3.67-3.91-5.63-5.75-2.83-2.66-5.71-5.24-7.76-8.58-.16.1-.33.19-.49.29 3.51 3.12 7.04 6.33 9.22 10.56.1.2.65.01.56-.2A67.503 67.503 0 0 0 53.79 1.34c-.16-.18-.68-.01-.53.25 2.55 4.43 5.37 8.7 8.48 12.76 1.51 1.97 3.08 3.89 4.71 5.76 1.63 1.87 3.5 3.61 4.84 5.71.11.2.67-.01.51-.25z" class="st0"></path></svg>