<svg xmlns="http://www.w3.org/2000/svg" xml:space="preserve" viewBox="0 0 26.79 72.55"><style>.st0 {
      fill: #54378d;
    }
  </style><path d="M2.3 2.12c.23 0 1.3-.43.76-.43-.23 0-1.3.43-.76.43z" class="st0"></path><path d="M2.93 2.13C4.29 1.64 5.67 1.12 7.12.96c1.4-.15 2.82.04 4.22.16 2.68.23 5.36.45 8.04.68.21-.16.42-.32.62-.48l-16.35.66c-.12.15-.24.31-.35.46C8.44 1.61 13.63.8 18.84 1.51c.16-.16.32-.31.48-.47-3.52.56-7.09.5-10.6-.15-.25-.05-.59.01-.81.14-.08.05-.41.27-.14.32 3.75.7 7.57.74 11.34.14.16-.03 1.05-.39.48-.47C14.21.29 8.82 1.14 3.51 2c-.29.04-1.09.49-.36.46L19.5 1.8c.2-.01 1.22-.43.62-.48-3.13-.27-6.25-.54-9.38-.8C9.33.4 7.93.37 6.52.65c-1.37.27-2.69.73-4 1.21-.77.27-.04.44.41.27zM.5 3.23c4.48.93 9.03-.55 13.51.31.19-.21.39-.42.58-.64l-7.55-.06c-2.16-.02-4.4-.22-6.52.27-.14.04-.8.42-.38.57 3.53 1.18 7.46.77 11.13.82l.15-.61c-2.28.74-4.79.71-7.07 1.45-.32.11-.81.64-.15.61 5.54-.22 11.13-.43 16.63-1.17.37-.05 1.06-.62.31-.64-3.14-.1-6.28-.2-9.42-.29v.56c2-.76 4.14-.36 6.21-.31 1.71.04 3.39-.16 5.05-.56.7-.17.55-.74-.15-.57-2.16.52-4.25.49-6.45.38-1.76-.09-3.45-.03-5.12.6-.37.14-.5.54 0 .56 3.14.1 6.28.2 9.42.29.1-.21.2-.43.31-.64-5.4.72-10.89.93-16.33 1.14l-.15.61c2.28-.74 4.78-.71 7.06-1.45.34-.11.81-.6.15-.61-3.48-.05-7.3.39-10.66-.73-.13.19-.26.38-.38.56 2.15-.5 4.6-.2 6.8-.18 2.22.02 4.44.03 6.66.05.27 0 1.25-.51.58-.64-4.49-.85-9.04.62-13.51-.3-.36-.08-1.36.48-.71.62z" class="st0"></path><path d="M20.21.2c-.32 4.11.44 8.21.13 12.33-.31 4.1-.94 8.13-.69 12.26.26 4.15 1.04 8.24 1.36 12.38.34 4.38.23 8.78.12 13.17-.01.24.57.12.58-.07.1-4.02.2-8.04-.04-12.06-.25-4.23-1.03-8.4-1.37-12.63-.35-4.35.25-8.57.6-12.89.34-4.21-.44-8.38-.11-12.57.01-.22-.57-.11-.58.08z" class="st0"></path><path d="M19.66.56c2.26 3.24 2.62 7.2 2.51 11.04-.12 4.23-.3 8.38-.06 12.62.13 2.27.08 4.44-.26 6.69-.28 1.93-.51 3.82-.46 5.78.12 4.38 1.26 8.66 2.41 12.87.04.14.62-.02.58-.16-1.15-4.21-2.28-8.48-2.41-12.87-.06-2.26.28-4.44.59-6.67.26-1.93.24-3.85.12-5.8-.24-4.24-.06-8.39.06-12.62.11-3.85-.25-7.8-2.51-11.04-.09-.14-.62.09-.57.16z" class="st0"></path><path d="M19.68 1.57c.86 4.01 1.74 8.07 1.81 12.19.03 2.1-.24 4.18-.33 6.28-.08 1.94-.04 3.88.08 5.81.24 3.99.79 7.96 1.15 11.95.38 4.31 1 8.67.77 13l.58-.12c-.35-2.18-.07-4.39-.35-6.57-.23-1.83-.16-3.64-.34-5.47-.19-1.9-.65-3.75-.94-5.63-.31-2.06-.35-4.15-.66-6.22C20.17 18.08 18.76 9.34 19.8.53c.03-.22-.56-.12-.58.08-1.02 8.66.29 17.29 1.58 25.86.31 2.08.39 4.18.66 6.26.26 1.96.76 3.88.97 5.84.21 1.9.12 3.8.36 5.69.28 2.18.01 4.39.35 6.57.03.19.57.05.58-.12.21-4.05-.36-8.09-.69-12.12-.33-4.15-.92-8.28-1.2-12.43-.15-2.22-.21-4.45-.09-6.67.1-1.89.33-3.76.32-5.66-.04-4.2-.93-8.34-1.81-12.43-.03-.18-.61-.04-.57.17zM13.1 48.06c-.21-3.63-.93-7.2-1.49-10.79-.56-3.61-.7-7.21-.86-10.86-.31-7.23-2.54-14.31-2.38-21.57.01-.25-.55-.13-.58.07-1.31 7.55.85 15.02 2.11 22.42 1.34 7.86 1.91 15.83 1.73 23.8.19-.04.39-.07.58-.11-.25-4.18-.4-8.38-.8-12.54-.38-3.98-1.47-7.86-2.4-11.74-.93-3.9-2.04-7.8-2.61-11.78-.55-3.94-.51-7.94-1.68-11.76-.07-.22-.61-.07-.58.15 1.09 8.05 1.75 16.3 3.75 24.18 2.02 7.98 2.63 16.12 3.11 24.31.01.2.59.08.58-.16-.48-8.19-1.09-16.33-3.11-24.31-2-7.88-2.66-16.13-3.75-24.18-.19.06-.39.11-.58.16C5.28 7.1 5.27 11.03 5.8 14.88c.56 4.05 1.68 8.03 2.64 12.01.91 3.8 1.98 7.61 2.37 11.51.43 4.24.57 8.53.83 12.78.01.2.58.07.58-.11.17-7.67-.34-15.35-1.57-22.92-1.25-7.7-3.64-15.46-2.28-23.31-.19.02-.39.05-.58.07-.16 7.13 2.03 14.07 2.36 21.18.17 3.72.28 7.41.84 11.1.56 3.67 1.31 7.31 1.53 11.03.02.2.6.07.58-.16z" class="st0"></path><path d="M5.47 4.02c.23 7.97 2.48 15.64 3.96 23.42.79 4.15 1.28 8.32 1.24 12.55-.04 4.34-.51 8.66-.97 12.97-.03.29.56.21.59-.05.46-4.23.92-8.47.97-12.73.05-4.04-.36-8.03-1.08-12-1.46-8.05-3.89-15.96-4.12-24.2-.01-.3-.59-.21-.59.04z" class="st0"></path><path d="M2.77 4.34c.39 12.25 2.16 24.4 4.17 36.47.03.18.59.04.58-.16-.19-6.21.85-12.54-.47-18.69C5.84 16.35 2.74 11.38.81 6.01c-.07-.17-.63-.02-.58.16C2.17 14.02 4 21.91 6.12 29.71c2.1 7.71 5.12 15.5 4.31 23.63l.58-.12c-.44-5.3-1.19-10.57-2.25-15.79-.04-.18-.6-.04-.58.16.37 4.42.73 8.84 1.1 13.25.01.17.6.05.58-.16-.37-4.42-.73-8.84-1.1-13.25-.19.05-.39.1-.58.16 1.06 5.22 1.81 10.48 2.25 15.79.01.17.56.04.58-.12.8-8-2.1-15.65-4.18-23.24-2.18-7.95-4.04-16-6.01-24-.19.05-.39.1-.58.16 1.94 5.37 5.03 10.34 6.25 15.96 1.31 6.13.27 12.46.45 18.67.19-.05.39-.1.58-.16C5.51 28.58 3.74 16.44 3.35 4.18c-.01-.15-.59-.05-.58.16z" class="st0"></path><path d="M14.96 46.01c2.51.9 5.06 1.65 7.65 2.25.21.05.69-.25.34-.35-3.14-.98-6.32-1.8-9.54-2.46-.11.12-.23.24-.34.35 2.96.52 5.92 1.05 8.77 2.02.07-.12.14-.24.2-.36-3.61.48-7.12 1.77-10.78 1.84-.23 0-.5.37-.14.38 4.35.02 8.89-.69 13.15.46.21.06.69-.21.34-.35-3.94-1.61-7.97-3.2-12.29-3.18-.16 0-.63.29-.28.37 3.26.69 6.57 1.03 9.9 1.01.23 0 .62-.33.21-.38-3.07-.33-6.28-.15-9.32.35-.14.02-.53.28-.2.36 3.54.93 7.21 1.51 10.86 1.82.07-.13.14-.25.21-.38-5.82-.21-11.78-.35-17.29 1.83-.26.1-.18.36.09.33 6.29-.56 12.61-.31 18.91-.05.11 0 .61-.21.33-.34-2.1-.99-4.45-.66-6.7-.67-2.75-.01-5.49-.24-8.22-.47l-.06.36a42.132 42.132 0 0 1 15.63-.3c.05-.13.09-.25.14-.38-3.27.6-6.58.85-9.91.75.01.11.01.22.02.33a12.86 12.86 0 0 1 5.16-1c.05-.13.09-.25.14-.38-2.69.06-5.38.12-8.07.17-.23 0-.5.35-.14.38 2.93.22 5.87.26 8.81.11.31-.02.46-.39.06-.37-2.89.15-5.78.11-8.66-.11-.05.13-.09.25-.14.38 2.69-.06 5.38-.12 8.07-.17.23-.01.5-.37.14-.38-1.95-.02-3.81.34-5.61 1.09-.19.08-.24.33.02.33 3.38.11 6.74-.14 10.06-.75.21-.04.51-.31.14-.38-5.29-.89-10.68-.76-15.93.33-.22.05-.37.34-.06.36 2.48.21 4.97.42 7.46.46 2.37.04 5.01-.43 7.22.61.11-.11.22-.23.33-.34-6.35-.27-12.71-.51-19.06.05l.09.33c5.35-2.12 11.18-1.95 16.83-1.75.25.01.61-.34.21-.38-3.6-.3-7.23-.87-10.72-1.8-.07.12-.14.24-.2.36 2.99-.49 6.15-.67 9.17-.35.07-.13.14-.25.21-.38-3.29.01-6.55-.31-9.77-.99-.09.12-.19.24-.28.37 4.27-.02 8.26 1.57 12.16 3.16.11-.12.23-.24.34-.35-4.31-1.17-8.88-.46-13.28-.48-.05.13-.09.25-.14.38 3.66-.07 7.17-1.36 10.78-1.84.16-.02.51-.26.2-.36-2.85-.96-5.81-1.5-8.77-2.02-.21-.04-.69.28-.34.35 3.22.66 6.4 1.48 9.54 2.46.11-.12.23-.24.34-.35-2.59-.6-5.14-1.35-7.65-2.25-.21-.07-.67.24-.34.36zM19.25 3.17c.65 4.35 1.23 8.73 1.26 13.14.02 2.22-.15 4.42-.31 6.63-.17 2.32-.08 4.61.07 6.92.01.1.59 0 .58-.16-.15-2.32-.23-4.61-.07-6.92.16-2.21.33-4.41.31-6.63-.04-4.41-.61-8.78-1.26-13.14-.02-.11-.61.01-.58.16z" class="st0"></path><path d="M22.61 3.33c.46 5.49.26 11.09.25 16.59-.01 7.14-.07 14.29-.19 21.43-.04 2.25-.05 4.52-.19 6.77-.02.26.57.16.58-.06.31-5.23.25-10.5.3-15.74.07-7.3.12-14.6.03-21.9-.03-2.41-.02-4.83-.22-7.24.01-.22-.58-.09-.56.15zM2.06 6.56c.15 2.72 1.36 5.16 2.02 7.77.73 2.85.9 5.79 1.1 8.71.39 5.76 1.46 11.27 3.74 16.6.11.26.68.09.58-.16-2.21-5.17-3.32-10.54-3.7-16.14-.19-2.77-.33-5.56-.92-8.28-.62-2.88-2.06-5.58-2.23-8.56-.02-.29-.6-.2-.59.06z" class="st0"></path><path d="M6.88 25.57c2.23 5.95 1.99 12.54 2.23 18.79.01.3.6.21.59-.04-.24-6.28 0-12.93-2.24-18.9-.1-.27-.67-.11-.58.15zM12.98 59.77c.62-.83 1.33-1.58 2.46-.9.5.3.95.68 1.38 1.08.94.88 1.71 1.95 2.27 3.11.52 1.08.86 2.24 1.01 3.42.07.57.09 1.15.06 1.73-.02.35-.04 2.01-.55 2.16h.3a12.801 12.801 0 0 1-5.12-7c-.43-1.49-.75-3.31-.23-4.81.11-.33.27-.72.53-.97.68-.64 1.51-.2 2.04.28.68.61 1.18 1.47 1.66 2.24.9 1.41 1.67 2.94 1.97 4.6.15.82.18 1.68.05 2.51-.06.41-.16.84-.33 1.22-.07.17-.15.41-.28.52-.29.24-.77.06-1.08-.02-1.52-.38-3.47-.98-3.97-2.66-.46-1.55.13-3.35 1.11-4.58 1.2-1.5 3.02-2.1 4.88-2.2.78-.04 1.57-.01 2.35.06.44.04 1.07.01 1.32.42.22.36.2.94.2 1.34-.02 1.75-.84 3.42-1.86 4.81-.94 1.28-2.17 2.61-3.7 3.18-1.49.56-1.6-.43-1.85-1.52-.2-.9-.32-1.81-.34-2.73-.02-.89 0-1.86.23-2.72.36-1.34 1.85-1.49 3.04-1.41 1.63.1 3.58.29 4.23 2.03.25.66.33 1.37.42 2.07.11.91.21 1.85.07 2.76-.14.93-.56 1.73-1.16 2.46-.69.85-1.73 2.17-2.96 1.77-.41-.13-.89-.66-1.22-.91-.42-.33-.85-.65-1.27-.98-.81-.62-1.61-1.24-2.42-1.87-.81-.62-1.61-1.24-2.42-1.87-.76-.59-1.29-1.14-1.32-2.15-.06-1.84 1.19-3.59 2.92-4.16.39-.13.03-.23-.21-.16-1.87.61-3.31 2.35-3.3 4.36.01 1.34.84 1.9 1.82 2.66 1.23.95 2.46 1.9 3.69 2.84.58.44 1.15.89 1.73 1.33.52.4 1.08.98 1.7 1.21.78.28 1.62-.09 2.24-.56.85-.64 1.66-1.54 2.19-2.47.64-1.13.7-2.41.58-3.67-.1-1.12-.17-2.42-.77-3.4-.56-.92-1.5-1.16-2.49-1.34-1.62-.28-4.84-.72-5.59 1.33-.43 1.19-.36 2.73-.25 3.96.06.69.18 1.37.35 2.04.11.44.2 1.14.62 1.42.63.42 1.64-.01 2.24-.28.99-.45 1.85-1.12 2.6-1.89 1.66-1.71 3.12-4.07 3.04-6.53-.01-.44-.01-1.07-.41-1.36-.37-.27-1.01-.23-1.45-.26-1.12-.09-2.26-.11-3.38.05-2.14.3-4.15 1.32-5.22 3.26-.53.97-.82 2.13-.69 3.24.14 1.23.89 2.03 1.97 2.55.94.45 2.28 1.04 3.35.97.92-.07 1.26-.81 1.47-1.62.7-2.65-.36-5.32-1.74-7.55-.9-1.45-2.48-4.16-4.56-2.88-1.91 1.18-1.24 4.59-.71 6.33.65 2.16 1.89 4.15 3.54 5.69.51.47 1.36 1.53 2.13 1.18.74-.34.75-1.43.8-2.12.18-2.28-.42-4.59-1.62-6.53-.58-.93-1.3-1.77-2.14-2.48-.69-.58-1.53-1.26-2.49-1.1-.89.15-1.5.82-2.01 1.51-.1.15.46.08.55-.04z" class="st0"></path><path d="M11.85 59.98c.32.1.64.2.96.28.3.08.59.16.9.2.52.07 1.11-.02 1.4-.5.08-.12-.07-.22-.17-.24-.15-.02-.3.05-.38.18-.07.12-.17.14-.28.16-.18.02-.37 0-.55-.04-.52-.11-1.03-.26-1.53-.43-.14-.04-.32 0-.41.11-.1.11-.06.24.06.28z" class="st0"></path><path d="M15.01 59.99c1.56-.93 3.29-1.08 4.89-.18.71.4 1.36.91 1.98 1.43.68.57 1.4 1.14 1.89 1.89.94 1.42.94 3.37.97 5.01.02.79.07 1.64-.14 2.4-.35 1.27-1.55 1.27-2.65 1.24-1.5-.04-3.06-.15-4.45-.75-1.57-.67-2.55-1.99-3.1-3.57-.54-1.56-.96-3.48-.35-5.07.29-.75.87-1.47 1.63-1.78 1.02-.41 1.96.27 2.77.81.61.41 1.23.73 1.92.99.85.32 1.76.57 2.5 1.12.56.42 1.04 1.03 1.19 1.72.07.33.08.74-.08 1.05-.13.25-.16.21-.38.2-.25-.01-.63-.29-.86-.39-.85-.39-1.69-.8-2.52-1.23-.64-.33-1.88-.79-1.55-1.74.5-1.43 2.24-.2 2.89.32.65.52 1.25 1.18 1.39 2.03.17 1.07-.48 1.78-1.5 2.05-.99.26-2.12.42-3.15.37-.95-.04-1.48-.55-1.67-1.47-.19-.9-.32-1.84-.41-2.75-.04-.4-.07-.84.09-1.22.25-.62.85-.8 1.27-.27.54.68.73 1.74.82 2.57.04.41.08.87.02 1.28-.03.21-.19.97-.46.77-.13-.09-.13-.85-.14-1-.02-.53.04-1.06.18-1.56.11-.39.25-.77.44-1.12.11-.2.23-.46.41-.61.41-.35.61-.2.88.14.56.7.85 1.73 1.09 2.58.14.52.94 3.31-.28 3.02-.83-.2-1.12-1.46-1.15-2.18-.03-.91.3-1.91 1.04-2.49.8-.62 2.01-.54 2.74.15.63.6.91 1.64.87 2.49-.02.42-.13.98-.47 1.26-.51.43-1.19.18-1.38-.39-.06-.16-.63.01-.58.16.28.79 1.25.84 1.92.57.97-.39 1.19-1.47 1.04-2.41-.18-1.19-.82-2.24-2.07-2.47-.86-.16-1.83.07-2.53.6-.87.66-1.25 1.8-1.16 2.87.08.93.58 2.14 1.67 2.14.33 0 .71-.1.97-.32.46-.39.34-1.03.27-1.57-.18-1.36-.56-3.08-1.42-4.19-.67-.87-1.72-.38-2.23.39-.83 1.26-1.02 2.85-.65 4.29.01.04.07.05.11.05 1.42.22 1.55-1.49 1.46-2.49-.1-1.11-.5-3.49-2.09-3.14-1.68.37-1.26 2.29-1.08 3.53.12.79.11 1.86.66 2.49.42.48 1.09.57 1.69.57.96 0 1.94-.14 2.87-.32.65-.13 1.34-.31 1.86-.75 1.27-1.07.44-2.77-.58-3.66-.97-.85-2.4-1.75-3.66-.91-.46.31-.81.87-.55 1.43.32.71 1.43 1.06 2.08 1.39.86.43 1.73.85 2.6 1.25.47.21.96.41 1.43.06.5-.37.53-1.19.36-1.73-.2-.67-.69-1.26-1.26-1.66-.71-.51-1.58-.76-2.39-1.06-.9-.33-1.65-.81-2.45-1.33-1.15-.73-2.4-.9-3.58-.15-1.38.88-1.82 2.48-1.7 4.03.13 1.68.63 3.56 1.68 4.9.97 1.25 2.45 1.86 3.97 2.13.77.14 1.55.2 2.34.23.76.03 1.56.1 2.31-.06 1.47-.32 1.8-1.57 1.82-2.92.03-1.82.1-4.05-.76-5.71-.39-.75-1.01-1.34-1.64-1.88-.7-.6-1.41-1.2-2.2-1.68-1.31-.81-2.58-1.03-4.08-.68-.7.17-1.37.42-1.98.79-.32.19.2.19.35.1z" class="st0"></path><path d="M21.87 67.81c.33.79.55 1.63.61 2.49.03.37.06.81-.16 1.14-.31.46-1.02.46-1.51.4-1.55-.18-2.86-1.26-4-2.23-.68-.57-1.35-1.15-2.03-1.73-.59-.5-1.44-1.03-1.76-1.77-.65-1.54.72-3.06 1.3-4.39.08-.17-.5-.11-.58.07-.56 1.28-1.67 2.52-1.42 4.02.12.73.63 1.18 1.17 1.64.66.56 1.31 1.12 1.97 1.67 1.09.93 2.18 1.94 3.49 2.55 1.02.48 2.44.77 3.47.17.58-.34.7-.9.67-1.53-.04-.92-.27-1.82-.63-2.67-.09-.19-.66-.01-.59.17zM12.47 61.75v.27c.01.01.02.02.03.02.02.01.04.01.07.01.03 0 .07 0 .1-.01.04 0 .08-.01.11-.02.07-.02.14-.04.2-.08.03-.02.07-.04.07-.08v-.27c-.01-.01-.02-.02-.03-.02-.02-.01-.04-.01-.07-.01-.03 0-.07 0-.1.01a.36.36 0 0 0-.11.02c-.07.02-.14.04-.2.08-.03.02-.07.04-.07.08z" class="st0"></path><path d="M12.92 62.03c.44-.78-.1-1.77.61-2.44.71-.67 1.99-.7 2.9-.79 1.09-.11 2.21-.15 3.3-.04 1.26.13 2.2.64 3.06 1.57 1.34 1.46 2.28 3.27 2.73 5.2.43 1.84.67 4.44-1.1 5.67-1.61 1.12-4.75 1.53-6.19-.05-.15-.17-.71.05-.54.24 1.39 1.52 3.87 1.28 5.65.71.9-.29 1.77-.77 2.33-1.56.65-.91.76-2.07.71-3.16-.12-2.45-1.07-4.87-2.62-6.77-.76-.94-1.64-1.75-2.84-2.05-1.21-.3-2.55-.25-3.79-.17-1.17.08-2.53.14-3.58.72-.39.21-.74.52-.91.93-.25.63.07 1.34-.27 1.95-.14.26.45.23.55.04z" class="st0"></path><path d="M17.53 70.67c.6.2 1.22.38 1.86.28.53-.08 1.04-.31 1.43-.68.88-.81 1.07-2.02 1.23-3.14.01-.07-.55-.02-.58.16-.14.96-.29 2-.93 2.77-.24.29-.57.59-.95.66-.52.1-1.09-.11-1.58-.28-.12-.04-.3.02-.41.07-.06.03-.19.12-.07.16z" class="st0"></path><path d="M19.9 72.22c.63-.02 1.25-.09 1.86-.23.47-.11 1.11-.21 1.49-.53.42-.35.23-.81.12-1.26-.2-.76-.39-1.52-.59-2.28-.64-2.5-1.19-5.11-2.69-7.26-.13-.19-.69.02-.53.24 1.22 1.76 1.79 3.83 2.31 5.88.3 1.15.59 2.31.89 3.46.1.4.24.91-.2 1.15-.23.12-.55.17-.8.23-.59.14-1.19.21-1.8.23-.31 0-.46.38-.06.37zM11.8 59.8c-1.56 1.33-1.6 3.59-.27 5.1 1.55 1.75 3.97 2.15 5.9 3.3.18.11.71-.15.46-.3-1.8-1.08-4.03-1.47-5.56-2.98-.65-.64-1.14-1.46-1.18-2.39-.05-1 .38-1.97 1.14-2.61.11-.09.04-.19-.06-.23-.15-.06-.34.03-.43.11zM21.84 40.86c-.19.7-.1 1.42-.07 2.13.04.8.07 1.6.11 2.4.07 1.6.15 3.2.22 4.8 0 .09.59 0 .58-.16l-.21-4.61c-.03-.74-.07-1.48-.1-2.21-.04-.8-.17-1.67.04-2.45.03-.1-.53-.04-.57.1zM2.17 3.78c.29 3.82 1.03 7.58 1.7 11.35.7 3.93 1.25 7.89 1.69 11.85.88 7.87 1.36 15.79 1.84 23.69.02.39 1.19.15 1.16-.31-.49-7.9-.96-15.81-1.85-23.69-.44-3.89-.97-7.76-1.65-11.62-.68-3.84-1.44-7.68-1.74-11.58-.03-.39-1.19-.15-1.15.31zM22.05 2.22c-.39 16.14 2.51 32.26.69 48.38-.05.4 1.11.18 1.15-.17 1.82-16.16-1.08-32.34-.69-48.52.02-.29-1.14-.1-1.15.31z" class="st0"></path><path d="M3.1 3.6a56.435 56.435 0 0 1 19.15-1.61c.59.05 1.17-.82.39-.89C16 .52 9.33 1.08 2.88 2.76c-.73.19-.5 1.03.22.84z" class="st0"></path><path d="M20.35 1.75c-5.69-.33-11.4-.03-17.02.88-.56.09-.95.8-.15.67 5.53-.9 11.13-1.19 16.72-.87.46.03 1.23-.64.45-.68z" class="st0"></path><path d="M2.18 3.95c5.67.26 11.34.19 17.01-.19.59-.04.95-.74.15-.68-5.57.38-11.15.44-16.72.18-.47-.02-1.23.66-.44.69zM19.16 57.74c-3.13-.3-5.78 2.17-6.26 5.17-.29 1.77.11 3.61.84 5.22.32.7.69 1.4 1.34 1.84.66.44 1.47.6 2.25.7 3.22.44 6.81-.57 8.49-3.55.75-1.33 1-2.93.5-4.39-.5-1.45-1.61-2.6-2.85-3.45-2.75-1.87-6.43-2.74-9.42-.91-2.76 1.69-4.09 5.24-2.95 8.31 1.02 2.75 3.75 4.61 6.71 4.08 1.35-.24 2.65-.95 3.48-2.05 1.06-1.42 1.17-3.3 1.24-5.01.06-1.55.34-4.05-1.62-4.55-1.63-.42-3.04.71-3.68 2.12-.4.87-.63 1.9-.67 2.86-.03.76.01 1.84.52 2.46 1.24 1.49 3.21-1.53 3.64-2.42.3-.61-.87-.66-1.12-.16-.29.6-.66 1.15-1.14 1.62-.34.33-.42.36-.56-.11-.11-.39-.17-.8-.17-1.21 0-1.19.3-2.64 1.04-3.59.37-.47.93-.84 1.56-.71.71.15.94.87 1.01 1.51.16 1.43.04 3-.16 4.42-.18 1.24-.63 2.41-1.66 3.18-.85.63-1.95.93-3 .83-2.27-.21-4.01-2.22-4.5-4.36-.58-2.54.55-5.34 2.84-6.62 2.43-1.36 5.34-.52 7.54.91 1.99 1.29 3.55 3.43 2.82 5.9-.77 2.59-3.25 3.98-5.83 4.09-1.4.06-3.27-.02-4.1-1.32-.8-1.24-1.25-2.88-1.29-4.34-.07-2.67 1.73-5.86 4.78-5.56.59.05 1.16-.83.38-.91zM10.29 49.17c1-.02 1.96-.24 2.95-.36.96-.12 1.93-.06 2.9-.03 2.04.06 4.08.11 6.12.17.26.01.64-.07.76-.35.1-.25-.09-.47-.35-.48l-6.36-.18c-.95-.03-1.9-.08-2.84.02-1.02.12-2.03.35-3.06.37-.66.02-.91.86-.12.84z" class="st0"></path><path d="M22.39 47.98c-4.77-.46-9.56-.69-14.35-.68-.23 0-.67.07-.76.33-.09.23.08.37.32.37 4.79 0 9.58.22 14.35.68.48.05 1.22-.62.44-.7z" class="st0"></path></svg>