<svg xmlns="http://www.w3.org/2000/svg" xml:space="preserve" x="0" y="0"  version="1.1" viewBox="0 0 80 80"><style>.st0{fill:#E6CE00bb}</style><path d="M17.99 22.38c.12.08.25.27.29.42l.1.36c.04.16-.02.22-.15.14a.842.842 0 0 1-.29-.42l-.1-.36c-.04-.16.02-.22.15-.14zM18.66 20.48c-.01-.09.06-.26.15-.39s.18-.17.19-.08c.01.09-.06.26-.15.4-.09.13-.18.16-.19.07zM21.14 38.66l.08.03c.14.06.32.24.38.39l.25.58c.07.15 0 .22-.15.15l-.07-.03a.8.8 0 0 1-.38-.39l-.25-.58c-.08-.15-.01-.22.14-.15zM49.21 11.96l-.07.04c-.14.08-.3.27-.35.43l-.19.61c-.05.15.02.21.16.13l.07-.04c.14-.08.3-.27.35-.43l.19-.61c.05-.15-.02-.21-.16-.13zM48.11 8.46l.23.12c.14.08.39.1.54.06l.93-.24c.16-.04.17-.13.02-.21l-.23-.12a.912.912 0 0 0-.54-.06l-.93.25c-.15.03-.16.13-.02.2zM57.8 39.03c.14-.04.32-.18.4-.32l.19-.31c.08-.14.04-.22-.09-.18-.14.04-.32.18-.4.32l-.19.31c-.1.14-.05.22.09.18zM34.3.9c-.01.09.05.27.13.4.09.14.17.18.18.09.02-.09-.04-.27-.13-.41-.09-.13-.17-.17-.18-.08zM40.03 15.67c-.12.04-.28.2-.35.34l-.11.21c-.07.14-.04.22.08.18.11-.04.27-.2.34-.34l.11-.21c.08-.14.04-.22-.07-.18zM19.44 5.67c-.04.1-.03.3.02.46l.04.14c.06.15.13.19.18.09.05-.1.03-.31-.02-.46l-.05-.13c-.06-.16-.13-.2-.17-.1zM43.81 3.03l.02.1c.04.16.17.36.31.45l.57.38c.14.09.22.03.18-.12l-.03-.11c-.04-.16-.17-.36-.31-.44l-.56-.38c-.14-.09-.22-.04-.18.12zM38.7 39.9c.1-.09.33-.15.49-.14l.35.02c.16.01.2.09.09.18-.11.09-.33.15-.49.14l-.34-.02c-.17-.02-.21-.09-.1-.18zM68.68 13.07c.14-.01.33-.11.45-.22l.21-.21c.11-.12.09-.21-.03-.2-.14.01-.33.11-.44.23l-.21.21c-.13.12-.11.2.02.19zM5.55 3.51l-.37-.27a.79.79 0 0 0-.52-.14l-1.3.14c-.16.02-.19.12-.06.21l.36.26c.13.1.37.16.53.14l1.3-.14c.16-.02.19-.11.06-.2zM5.76 9.24c.15.04.35.18.43.32l.24.37c.08.14.03.22-.11.18a.847.847 0 0 1-.43-.32l-.24-.38c-.09-.14-.04-.21.11-.17zM8.18 19.99c-.02.1-.14.26-.27.36l-.08.06c-.14.09-.23.09-.21-.01.02-.1.14-.26.27-.36l.08-.06c.13-.1.23-.09.21.01zM19.96 16.49c-.13-.02-.32-.14-.42-.27l-.18-.24c-.1-.13-.07-.21.06-.19.13.02.32.15.42.27l.18.24c.1.13.08.21-.06.19zM38.08 6.16c.09-.12.31-.25.46-.27l.46-.08c.16-.03.21.05.12.18-.1.12-.31.25-.47.27l-.47.07c-.15.04-.2-.04-.1-.17zM28.98 24.1l-.05-.11a.836.836 0 0 1-.03-.54l.21-.67c.06-.15.15-.16.21-.01l.05.11c.07.15.08.39.03.55l-.22.67c-.04.14-.14.15-.2 0zM47.33 5.67c.15.07.32.24.39.39l.19.44c.07.15 0 .21-.15.15a.844.844 0 0 1-.39-.38l-.2-.45c-.06-.15.01-.22.16-.15zM41.91 19.33l-.08.02a.85.85 0 0 1-.54-.1l-.53-.33c-.14-.09-.12-.18.04-.21l.08-.01c.16-.03.39.01.53.1l.53.33c.14.08.13.17-.03.2zM54.66 2.33l.31.16c.15.07.31.25.37.4l.41 1.05c.06.15-.01.21-.15.14l-.32-.16a.845.845 0 0 1-.37-.4l-.41-1.05c-.05-.15.01-.21.16-.14zM64.01 31.48a.82.82 0 0 0-.2-.49l-.31-.32c-.11-.12-.2-.09-.2.07 0 .15.09.38.2.49l.3.32c.12.11.21.08.21-.07zM65.6 41.96l-.01.03c-.06.15-.06.39 0 .55l.2.51c.07.15.16.15.22 0l.01-.03c.06-.15.06-.39 0-.55l-.21-.51c-.06-.15-.15-.15-.21 0zM63.04 24.67l-.28.03c-.16.02-.38.12-.48.24l-.67.73c-.11.12-.07.2.09.19l.28-.03c.16-.02.38-.12.49-.24l.67-.73c.11-.12.06-.2-.1-.19zM32.76 40.61c-.03-.13-.17-.31-.31-.4l-.27-.17c-.14-.09-.22-.05-.19.08s.18.31.31.4l.27.17c.15.08.23.05.19-.08zM25.7 18.16l-.2.11c-.14.08-.3.27-.35.42l-.28.84c-.05.15.02.21.16.14l.19-.11c.14-.08.3-.27.35-.42l.28-.84c.06-.16-.01-.22-.15-.14zM11.2 7.8c-.05.15-.03.4.03.54l.21.44c.07.14.16.14.21-.01.05-.15.03-.4-.04-.54l-.21-.43c-.06-.16-.15-.16-.2 0zM20.84 8.06c.02.08.15.21.28.29.13.08.22.08.2 0-.03-.08-.15-.21-.28-.29-.14-.08-.23-.08-.2 0zM6.52 35.43l.13-.24c.08-.14.27-.3.42-.35l.93-.31c.15-.05.21.02.14.16l-.13.24a.85.85 0 0 1-.42.35l-.93.32c-.16.04-.22-.03-.14-.17zM20.57 26.53l-.25-.3a.795.795 0 0 1-.18-.51l.04-1.19c0-.16.09-.19.2-.07l.25.3c.1.12.19.35.18.51l-.04 1.19c0 .16-.09.19-.2.07zM16.3 32.27c.08.14.1.37.07.53l-.11.44c-.04.15-.14.17-.21.03a.88.88 0 0 1-.06-.53l.11-.44c.03-.16.13-.17.2-.03zM9.35 21.5l.1.19c.07.14.09.39.04.54l-.25.85c-.05.15-.14.16-.21.02l-.1-.2a.941.941 0 0 1-.05-.55l.25-.85c.05-.14.15-.14.22 0zM39.4 8.06l-.14-.26c-.08-.14-.1-.39-.07-.54l.26-.98c.04-.15.14-.17.21-.02l.14.25c.07.14.1.38.06.54l-.25.98c-.04.17-.13.18-.21.03zM48.04 13.9c-.1.01-.28-.06-.41-.16l-.05-.04c-.12-.1-.15-.18-.06-.19.1-.01.28.06.41.16l.05.03c.13.1.15.19.06.2zM45.91 23.02c-.02.13-.14.31-.26.41l-.2.15c-.13.1-.21.08-.2-.04.02-.12.14-.31.26-.41l.2-.15c.14-.1.22-.08.2.04zM57.02 22.66c.09-.09.3-.17.46-.18l.3-.01c.16 0 .21.06.12.16-.09.09-.3.17-.46.18l-.3.01c-.17 0-.22-.07-.12-.16zM73.47 20.64l.09.15c.09.14.13.38.1.54l-.16.8c-.03.16-.13.17-.21.04l-.09-.15a.85.85 0 0 1-.1-.54l.16-.79c.03-.17.12-.19.21-.05zM21.81 42.87l-.02.05c-.05.15-.05.4.02.55l.23.54c.06.15.16.14.21-.01l.02-.05c.06-.15.05-.4-.02-.55l-.23-.54c-.05-.14-.15-.14-.21.01zM73.11 1.98l.01.02c.04.15.18.36.31.45l.44.29c.14.09.21.03.17-.12l-.01-.03a.834.834 0 0 0-.3-.44l-.44-.29c-.14-.09-.22-.03-.18.12zM65.46 10.11c.09.13.3.26.46.29l.48.1c.15.03.21-.05.11-.18a.841.841 0 0 0-.45-.29l-.47-.1c-.17-.03-.23.05-.13.18zM56.28 39.92c.08.05.28.07.43.04l.03-.01c.16-.03.23-.09.15-.14-.08-.05-.28-.07-.44-.04l-.03.01c-.16.03-.22.09-.14.14zM53.27 34.35c-.02.09.02.27.1.41.08.14.16.18.18.1.02-.08-.02-.27-.1-.41-.08-.14-.16-.19-.18-.1zM70.07 25.85l.19-.09c.15-.07.39-.09.55-.05l.83.24c.16.05.16.14.02.21l-.18.09c-.15.07-.39.09-.54.05l-.84-.24c-.17-.05-.17-.14-.03-.21zM70.64 22.71l.04-.07c.08-.14.11-.38.07-.54l-.15-.61c-.04-.16-.13-.17-.21-.03l-.04.07c-.08.14-.11.38-.07.54l.15.6c.03.17.13.18.21.04zM10.67 40.94l.03.05a.9.9 0 0 1 .14.53l-.07.6c-.02.16-.11.18-.21.05l-.03-.05a.892.892 0 0 1-.13-.53l.07-.6c.01-.15.1-.18.2-.05zM30.82 36.56l-.03-.01a.846.846 0 0 1-.44-.32l-.29-.47c-.09-.14-.03-.21.13-.17l.03.01c.16.04.36.18.44.32l.3.47c.08.14.02.22-.14.17zM31.04 59.5l-.07.05a.83.83 0 0 1-.52.15l-.63-.06c-.16-.01-.18-.1-.06-.2l.07-.05c.13-.1.36-.16.52-.15l.63.05c.16.02.18.11.06.21zM22.65 30.12l.36.15c.15.06.32.24.39.38l.5 1.09c.07.15 0 .22-.15.15l-.36-.16a.8.8 0 0 1-.39-.38l-.49-1.09c-.07-.13-.01-.2.14-.14zM33.68 44.15c.07.07.12.26.12.43v.08c0 .16-.05.23-.12.16-.07-.07-.12-.26-.12-.43v-.08c0-.16.06-.23.12-.16zM44.56 46.41l-.07.26c-.04.16-.18.36-.32.44l-.82.53c-.13.09-.21.03-.17-.12l.07-.27c.04-.16.18-.36.32-.44l.82-.53c.13-.08.2-.02.17.13zM36.21 34.22c-.04.13-.19.3-.33.38l-.27.16c-.14.08-.22.04-.18-.09.04-.13.19-.3.33-.38l.27-.16c.14-.08.22-.04.18.09zM65.47 47.88a.73.73 0 0 1 .18-.47l.2-.24c.1-.13.2-.11.2.02a.73.73 0 0 1-.18.47l-.2.24c-.1.13-.19.12-.2-.02zM50.72 74.87c.09-.05.19-.21.24-.37l.02-.07c.05-.15.02-.24-.07-.19-.08.05-.2.21-.24.37l-.02.07c-.05.15-.02.24.07.19zM28.82 73.12c.03-.14 0-.38-.07-.52l-.19-.35c-.08-.14-.17-.14-.2 0-.04.14 0 .38.07.52l.18.35c.07.15.17.15.21 0zM55.77 79.6c.1-.01.27-.11.38-.23l.05-.05c.11-.12.12-.21.02-.2-.1.01-.26.11-.38.23l-.05.05c-.11.12-.12.21-.02.2zM31.99 78.7c.11-.09.22-.28.25-.44l.05-.31c.02-.16-.04-.22-.15-.14-.11.08-.21.28-.24.44l-.06.32c-.03.15.04.21.15.13zM8.5 77.96c.1.06.3.09.47.06l.18-.03c.16-.03.21-.1.11-.16-.1-.06-.3-.09-.46-.06l-.19.03c-.16.03-.21.1-.11.16zM15.62 49.24l.3.22c.13.1.26.3.29.46l.23 1.14c.03.16-.05.21-.17.12l-.31-.22c-.13-.1-.27-.3-.3-.46l-.23-1.14c-.03-.17.05-.22.19-.12zM10.24 56.6l-.16-.19a.926.926 0 0 1-.18-.51l.04-.93c.01-.16.1-.19.2-.07l.16.19c.1.12.19.35.18.51l-.03.93c-.01.16-.1.19-.21.07zM15.52 59.43l.07-.02c.15-.05.4-.05.54.02l.58.24c.15.06.14.16-.01.21l-.07.03c-.16.05-.4.05-.55-.02l-.57-.24c-.14-.07-.14-.17.01-.22zM25.44 70.55c-.05-.06-.08-.21-.07-.33.01-.13.05-.19.09-.13.05.06.08.21.07.33-.01.12-.04.18-.09.13zM28.73 44.13c0 .07-.08.19-.17.28-.08.08-.15.1-.15.03s.08-.19.16-.27c.09-.1.16-.11.16-.04zM19.84 65.38c-.16.02-.4-.04-.54-.13l-.4-.29c-.13-.09-.1-.19.05-.21h.01c.16-.02.4.04.53.13l.4.29c.13.1.11.19-.05.21zM44.5 60.74c.02-.11.16-.28.29-.37l.15-.11c.13-.09.22-.07.2.04-.03.12-.16.28-.29.37l-.15.11c-.14.09-.23.07-.2-.04zM46.02 38.57c-.09-.06-.18-.24-.22-.39l-.02-.09c-.03-.16.01-.24.09-.18s.18.24.22.39l.02.09c.04.16-.01.24-.09.18zM49.16 46.6c.06.14.07.37.02.53l-.14.4c-.05.15-.14.17-.2.03a.868.868 0 0 1-.02-.53l.13-.4c.04-.15.14-.17.21-.03zM63.93 51.3l-.11-.21a.781.781 0 0 1-.05-.54l.26-.89c.05-.15.14-.16.22-.02l.11.22c.07.14.09.39.05.54l-.25.89c-.07.15-.16.16-.23.01zM50.8 65.89c-.06.13-.23.29-.38.36l-.35.15c-.15.06-.22.01-.16-.12s.23-.29.37-.36l.34-.15c.16-.07.24-.02.18.12zM44.25 68.81l.05-.06c.09-.13.15-.37.13-.53l-.09-.62c-.02-.16-.12-.18-.21-.05l-.04.06c-.09.13-.15.37-.13.53l.09.62c.01.16.1.18.2.05zM34.55 56.44l-.35.02c-.16.01-.39.1-.5.22l-.79.79c-.11.11-.08.2.08.19l.34-.02c.16-.01.39-.1.5-.22l.79-.79c.13-.11.09-.19-.07-.19zM51.66 66.68c-.13.02-.32.16-.41.29l-.19.26c-.09.13-.06.22.07.19a.78.78 0 0 0 .41-.29l.19-.26c.1-.13.07-.22-.07-.19zM50.18.66c-.06.13-.23.29-.38.36l-.35.15c-.15.06-.22.01-.16-.12s.23-.29.37-.36L50 .54c.17-.07.24-.01.18.12zM51.05 1.45c-.13.02-.32.16-.41.29l-.19.26c-.09.13-.06.22.07.19a.78.78 0 0 0 .41-.29l.19-.26c.1-.13.06-.21-.07-.19zM6.18.45c-.06.14-.23.3-.38.36l-.34.15c-.15.06-.22.01-.16-.13.06-.13.23-.29.37-.35l.34-.15c.16-.06.23-.01.17.12zM7.05 1.25c-.14.03-.32.16-.42.29l-.18.26c-.1.13-.07.21.07.18a.8.8 0 0 0 .41-.28l.19-.26c.1-.13.06-.22-.07-.19zM39.1 76.11c-.03-.05-.14-.11-.24-.15-.09-.03-.15-.02-.13.03.03.05.13.11.23.15.1.03.17.02.14-.03zM16.61 69.67c-.08.09-.15.3-.15.46l.01.23c0 .16.07.22.16.12.08-.09.14-.3.14-.46v-.22c-.01-.16-.08-.22-.16-.13zM15.59 77.69c.12.08.35.12.51.09l.36-.06c.16-.03.19-.12.07-.19a.809.809 0 0 0-.51-.09l-.36.06c-.17.03-.19.11-.07.19z" class="st0"/><path d="m26.49 70.46-.01-.01a.885.885 0 0 0-.53-.12l-.51.08c-.16.02-.18.11-.05.21l.01.01c.14.09.37.14.53.12l.5-.08c.18-.03.2-.12.06-.21zM13.97 76.38H14c.17 0 .39.09.51.2l.39.36c.11.11.08.2-.08.2h-.02c-.16 0-.39-.09-.51-.2l-.39-.36c-.12-.11-.08-.2.07-.2zM51.48 79.21h-.01a.791.791 0 0 1-.26-.47l-.07-.49c-.02-.16.07-.21.19-.11.13.1.25.32.27.48l.07.49c.01.16-.07.2-.19.1zM71.08 49.71c0-.1-.1-.27-.21-.39l-.04-.04c-.11-.12-.2-.13-.2-.03s.09.27.21.38l.04.05c.11.11.2.12.2.03zM40.85 65.67l.31-.01c.16 0 .39-.09.5-.2l.76-.72c.12-.11.08-.2-.08-.2h-.31c-.16 0-.39.09-.5.21l-.76.72c-.12.12-.08.21.08.2zM49.67 55.55c.03-.09 0-.28-.06-.43l-.02-.04c-.06-.15-.14-.2-.17-.11-.03.09 0 .28.06.43l.02.04c.06.15.13.2.17.11zM46.5 70.64l-.16.16a.86.86 0 0 0-.21.5l-.02.89c0 .16.08.2.2.08l.16-.16c.11-.11.21-.34.21-.5l.02-.89c0-.17-.09-.2-.2-.08zM15.19 61.32l-.17-.18a.79.79 0 0 0-.5-.22l-.93-.05c-.16-.01-.2.08-.09.19l.17.17c.11.11.33.22.5.22l.92.05c.17.02.21-.07.1-.18zM2.63 63.85h-.09c-.17 0-.39.09-.51.2l-.5.45c-.12.11-.09.2.08.19h.1c.16 0 .39-.09.51-.2l.49-.45c.13-.11.09-.2-.08-.19zM3.63 79.15c-.02-.12-.14-.29-.26-.39l-.15-.12c-.13-.1-.22-.09-.2.03.02.11.14.29.27.39l.15.12c.12.1.21.09.19-.03zM5.26 44.8l-.08-.09a.889.889 0 0 0-.49-.25l-.71-.06c-.16-.01-.2.07-.09.19l.08.09c.11.12.33.23.49.25l.71.07c.16.01.2-.08.09-.2zM65.89 51.19l-.21.16c-.13.1-.37.16-.53.15l-.95-.1c-.17-.02-.19-.11-.06-.2l.21-.15c.13-.1.36-.16.52-.15l.95.09c.18.01.21.11.07.2zM74.15 68.95l-.13-.12a.88.88 0 0 0-.52-.2l-.8.01c-.16 0-.19.09-.07.2l.13.12c.12.11.34.2.51.2l.81-.01c.16 0 .19-.09.07-.2zM63.81 72.45l.26.31c.11.13.32.24.48.26l1.23.15c.16.02.21-.06.1-.19l-.26-.31a.91.91 0 0 0-.48-.26l-1.23-.15c-.16-.02-.21.06-.1.19zM78.2 46.21l-.19.34c-.08.14-.27.29-.43.35l-1.14.37c-.15.05-.21-.02-.14-.16l.19-.33c.08-.14.27-.3.43-.35l1.14-.38c.15-.06.21.02.14.16zM59.5 55.63c-.09.07-.19.25-.22.41l-.03.15c-.03.16.02.23.11.17.09-.07.18-.25.22-.41l.03-.15c.02-.16-.03-.24-.11-.17zM66.18 77.28l-.02.01c-.15.06-.39.07-.55.02l-.5-.17c-.15-.05-.16-.14-.01-.21l.01-.01c.15-.06.4-.07.55-.02l.5.17c.16.05.16.15.02.21zM79.39 51.45l-.17-.14a.888.888 0 0 0-.53-.15l-.89.08c-.16.02-.19.11-.06.21l.17.13c.13.1.37.17.53.15l.89-.08c.16-.02.19-.11.06-.2zM64.73 67.05c-.09-.09-.17-.29-.18-.46l-.01-.26c-.01-.16.06-.21.15-.13.09.09.17.29.18.45l.01.26c.01.17-.06.23-.15.14zM67.24 77.58c-.13 0-.33-.1-.45-.21l-.21-.2c-.12-.11-.1-.2.03-.19.13 0 .33.1.44.21l.21.2c.12.11.11.2-.02.19zM68.97 20.67l.02.07c.08.19.07.51-.01.7l-.28.7c-.08.19-.21.19-.28-.01l-.02-.06c-.08-.2-.07-.51.01-.7l.29-.69c.08-.21.2-.2.27-.01zM66.06 47.89a.667.667 0 0 0-.2-.4l-.25-.24c-.1-.1-.18-.07-.17.06.01.13.1.31.2.41l.25.23c.1.1.18.08.17-.06zM67.86 25.59l.01.01c.03.06.1.14.17.17l.22.1c.07.03.09 0 .07-.06l-.01-.01a.436.436 0 0 0-.16-.17l-.22-.09c-.07-.04-.1-.01-.08.05zM68.4 24.35l.04.01c.14.02.35-.02.47-.1l.42-.28c.12-.08.1-.16-.04-.18l-.04-.01c-.14-.02-.36.02-.47.1l-.42.27c-.12.08-.1.17.04.19zM64.09 22.41l-.08-.18a.675.675 0 0 1-.02-.42l.25-.71c.04-.11.12-.12.16 0l.08.19c.05.11.06.3.02.42l-.25.71c-.03.11-.11.11-.16-.01zM75.39 51.41l.04-.17c.04-.16.01-.41-.07-.55l-.39-.7c-.08-.14-.18-.13-.22.03l-.03.16c-.04.16-.01.41.07.55l.39.7c.07.15.17.13.21-.02zM55.96 37.74l-.05-.12a.582.582 0 0 1-.02-.39l.19-.56c.04-.11.11-.11.15 0l.06.13c.04.1.05.28.02.39l-.19.56c-.04.09-.11.09-.16-.01zM53.88 4.96l-.18.42c-.03.08-.13.17-.21.21l-1.01.44c-.08.03-.12 0-.08-.08l.18-.42c.03-.08.12-.17.21-.2l1.01-.43c.08-.05.11-.01.08.06zM69.7.35l.21.02c.08.01.2.07.25.13l.41.47c.05.06.02.1-.06.09l-.21-.02a.504.504 0 0 1-.25-.13l-.41-.48c-.04-.05-.02-.1.06-.08zM44.64 12.65h.01c.09.05.2.17.24.26l.11.31c.03.1-.01.13-.1.09l-.01-.01a.511.511 0 0 1-.23-.25l-.12-.3c-.04-.1 0-.14.1-.1zM58.85 9.78l-.02-.01a.457.457 0 0 1-.24-.12l-.18-.21c-.05-.06-.03-.11.06-.1h.02c.08.01.18.07.23.13l.17.21c.06.07.04.11-.04.1zM50.83 17.39c-.06.04-.22.05-.34.03-.13-.02-.2-.07-.13-.11.06-.03.21-.06.35-.03.12.02.18.06.12.11zM25.22 43.48c.12-.04.27-.18.35-.31l.12-.21c.07-.13.04-.21-.08-.18-.11.04-.27.18-.35.31l-.12.22c-.07.13-.04.21.08.17zM25.14 32.55c.07.1.25.22.41.28l.19.06c.16.05.24 0 .18-.1s-.24-.23-.4-.28l-.19-.07c-.17-.04-.25 0-.19.11zM7.66 26.05l.14.01c.06 0 .16-.02.21-.06l.36-.28c.05-.04.04-.08-.02-.08l-.15-.01c-.06 0-.15.02-.2.07l-.36.28c-.05.03-.04.07.02.07zM38.1 11.31c.02.05.1.11.18.14.08.03.13.03.11-.01-.02-.04-.1-.1-.18-.14-.08-.04-.13-.03-.11.01zM70.22 9.72l.13-.11c.1-.09.21-.28.22-.42l.08-.72c.02-.14-.06-.18-.17-.09l-.12.12a.77.77 0 0 0-.23.41l-.08.73c-.02.14.06.18.17.08zM47.95 38.72l.09-.1c.1-.11.19-.33.19-.48v-.7c0-.15-.08-.19-.19-.07l-.09.1c-.1.11-.19.33-.19.48v.7c0 .14.08.18.19.07zM57.67 41.71a.588.588 0 0 1-.22-.27l-.08-.24c-.03-.1 0-.14.09-.1.09.05.18.17.22.27l.08.24c.03.1-.01.14-.09.1zM55.45 43.12l-.09.02c-.07.02-.19.01-.26-.02l-.38-.18c-.07-.04-.07-.09.01-.1l.1-.03c.08-.02.19-.01.26.02l.38.18c.06.04.06.09-.02.11zM64.94 9.67c.1.02.24.12.31.22l.14.21c.07.1.04.16-.06.13-.1-.02-.24-.13-.31-.23l-.15-.21c-.07-.08-.04-.15.07-.12zM41.12 18.52c.08-.22.31-.48.53-.58l.62-.31c.2-.11.31-.01.23.2-.08.21-.32.47-.53.58l-.62.31c-.21.09-.32.01-.23-.2zM42.55 28.83l-.02.23c0 .11-.08.27-.16.35l-.57.55c-.08.08-.15.05-.14-.06l.01-.24a.63.63 0 0 1 .16-.35l.57-.54c.1-.08.16-.05.15.06zM19.96 11.57l-.01-.01c-.23-.19-.67-.32-.97-.31l-.93.05c-.31.02-.36.19-.13.38h.01c.24.19.67.33.98.31l.93-.05c.29-.01.35-.18.12-.37zM27.09 29.42l-.14.13c-.05.04-.09.14-.09.2l-.02.55c0 .07.03.08.09.04l.14-.14c.05-.05.09-.13.09-.2l.02-.55c-.01-.06-.04-.09-.09-.03zM34.82 10.26l.23-.14c.1-.07.22-.22.25-.33l.24-.82c.03-.12-.02-.16-.13-.1l-.23.13c-.1.06-.22.21-.26.33l-.24.82c-.03.13.03.17.14.11zM49.06 14.43c.1.03.27.02.4-.04l.15-.07c.13-.06.15-.12.05-.16a.638.638 0 0 0-.4.05l-.15.07c-.12.06-.14.12-.05.15zM33.22 5.88c.17-.15.32-.45.34-.67l.05-.68c.02-.21-.1-.28-.27-.13l-.01.01c-.16.15-.31.45-.33.66l-.05.68c-.01.23.1.29.27.13zM66.54 18.27c-.03.11.01.31.08.45l.1.17c.08.14.16.15.19.05.03-.11-.01-.31-.08-.44l-.11-.17c-.07-.15-.16-.17-.18-.06zM6.17 6.72c-.1.06-.27.08-.38.06l-.32-.06c-.11-.03-.12-.09-.02-.15.09-.06.26-.08.37-.06l.32.07c.11.03.12.09.03.14zM23.56 3.36l.2.14c.15.1.31.34.35.52l.22.97c.04.19-.05.24-.21.13l-.19-.13c-.16-.11-.32-.35-.36-.52l-.22-.98c-.04-.18.05-.24.21-.13zM7.49 7.44l.03.04c.07.08.1.24.09.34l-.04.41c-.01.11-.07.12-.14.04l-.03-.05a.55.55 0 0 1-.09-.33l.05-.41c.01-.11.06-.13.13-.04zM10.56 28.74l-.28-.03c-.21-.02-.51-.17-.65-.33l-.77-.85c-.14-.16-.08-.28.13-.26l.28.03c.21.02.51.17.65.33l.77.85c.15.16.09.28-.13.26zM17.07 10.79c.05-.07.1-.24.09-.41 0-.15-.05-.24-.11-.17-.06.07-.1.25-.1.41.01.15.06.23.12.17zM39.55 39.91l.09.21c.05.12.04.31 0 .42l-.3.75c-.05.11-.13.11-.17 0l-.08-.22a.58.58 0 0 1 0-.41l.31-.75c.03-.12.1-.12.15 0zM15.17 9.33a.62.62 0 0 1 .1-.39l.21-.28c.07-.1.14-.08.15.03a.67.67 0 0 1-.1.39l-.21.29c-.07.1-.14.08-.15-.04zM17.45 15.02l.03.01c.14.05.3.19.37.32l.23.43c.07.13.01.19-.13.15l-.03-.01a.79.79 0 0 1-.37-.33l-.22-.43c-.07-.13-.01-.2.12-.14zM13.73 18.66c.07-.03.19-.05.27-.02l.16.04c.08.02.1.07.03.1-.06.03-.18.04-.27.02l-.16-.05c-.08-.01-.09-.05-.03-.09z" class="st0"/><path d="M8.26 25.83h-.04a.35.35 0 0 1-.2-.12l-.18-.21c-.04-.05-.02-.09.05-.07h.04c.07.02.16.06.2.12l.18.21c.04.04.02.08-.05.07zM56.16 23.9c.03.01.1-.01.16-.04s.07-.06.04-.07c-.03-.01-.1.01-.16.04-.06.04-.08.07-.04.07zM45.59 6.67l-.07.03c-.06.02-.13.09-.15.15l-.13.29c-.02.06 0 .09.06.06l.07-.03c.06-.02.12-.09.15-.15l.13-.29c.02-.06 0-.08-.06-.06zM49.92 22.95c-.02-.1-.15-.25-.28-.34l-.08-.06c-.13-.08-.22-.07-.2.02.03.1.15.25.29.34l.08.05c.12.1.21.09.19-.01zM33.41 21.18l.33-.05c.14-.02.33-.13.42-.25l.66-.82c.09-.12.04-.18-.1-.16l-.34.05c-.14.02-.34.14-.42.25l-.66.82c-.09.11-.04.19.11.16zM29.51 4.14c-.12.03-.31.18-.41.33l-.08.12c-.11.15-.09.25.03.22s.31-.18.41-.33l.08-.12c.11-.15.09-.24-.03-.22zM27.09 2.13h-.06a.62.62 0 0 0-.4.13l-.38.3c-.09.08-.07.15.06.15l.06.01c.13.01.31-.05.4-.13l.38-.3c.09-.08.07-.15-.06-.16zM73.86 59.95l.01-.38c.01-.13.09-.32.18-.41l.79-.78c.1-.09.17-.06.16.07v.38c-.01.13-.09.32-.18.41l-.78.78c-.11.09-.18.06-.18-.07zM50.33 47.32l.14.03c.1.03.22.13.28.22l.29.48c.06.09.02.14-.08.1l-.13-.04a.538.538 0 0 1-.28-.21l-.3-.48c-.05-.08-.02-.13.08-.1zM62.95 36.6l.19-.05c.1-.02.25-.01.34.04l.58.31c.09.05.08.11-.02.13l-.18.05c-.1.02-.25 0-.34-.04l-.58-.31c-.1-.05-.09-.1.01-.13zM75.62 71.92l-.08-.05c-.1-.05-.21-.2-.24-.31l-.14-.49c-.04-.11.02-.15.13-.09l.07.04c.1.06.21.2.24.31l.14.49c.04.12-.02.16-.12.1zM75.38 74.11c0-.05.03-.15.08-.22l.03-.04c.05-.07.1-.08.1-.03.01.06-.03.16-.08.22l-.03.04c-.05.07-.09.09-.1.03zM69.68 70.55c.09-.16.31-.34.5-.41l.45-.15c.19-.07.28.01.19.17-.09.16-.31.33-.5.4l-.44.16c-.2.06-.28-.01-.2-.17zM74.81 75.44l.16.03c.11.02.25.1.32.2l.37.49c.07.09.03.14-.08.12l-.16-.03a.655.655 0 0 1-.32-.19l-.37-.5c-.06-.09-.03-.14.08-.12zM30.26 71.23c.07.04.23.04.36 0 .14-.03.19-.09.12-.12-.07-.04-.23-.04-.36 0-.13.03-.18.09-.12.12zM20.21 58.08c-.08.02-.17.1-.22.17l-.12.19c-.04.07-.02.11.06.09.08-.02.18-.09.22-.17l.11-.18c.06-.08.03-.12-.05-.1zM21.11 59.62l-.05.51c-.01.13.04.31.12.41l.81 1.06c.08.1.16.08.17-.05l.05-.52a.66.66 0 0 0-.12-.41l-.81-1.06c-.08-.09-.15-.07-.17.06zM15.75 41.85l-.31.18c-.08.05-.17.17-.2.26l-.25.89c-.03.1.02.13.1.08l.3-.18c.09-.05.18-.17.21-.26l.26-.9c.02-.09-.02-.12-.11-.07zM31.98 49.94l-.06.24c-.02.09 0 .23.05.3l.36.63c.04.08.1.07.12-.01l.06-.24c.02-.1 0-.23-.05-.31l-.36-.62c-.04-.08-.1-.08-.12.01zM14.93 53.87l-.04-.08a.887.887 0 0 0-.39-.35l-.59-.22c-.15-.06-.21.01-.14.15l.04.08c.07.13.24.29.39.35l.59.23c.15.04.21-.02.14-.16zM22.24 52.6l-.22-.05c-.1-.02-.22-.12-.28-.2l-.39-.58c-.06-.08-.02-.13.07-.11l.22.05c.1.02.23.11.28.19l.4.59c.06.09.02.14-.08.11zM41.8 44.06c-.14-.04-.34-.2-.45-.36l-.12-.18c-.11-.17-.09-.27.05-.23.14.03.34.19.45.36l.13.19c.1.14.08.25-.06.22zM61.26 60.98c.04-.11.18-.24.32-.3l.18-.09c.14-.06.21-.03.17.07-.04.1-.18.24-.33.31l-.17.08c-.14.06-.21.03-.17-.07zM57.96 59.67c-.06.09-.22.2-.36.24l-.23.07c-.14.03-.2-.01-.14-.11.06-.09.22-.2.36-.24l.24-.06c.13-.05.19.01.13.1zM39.76 74.28l.15.25c.12.19.17.54.12.76l-.28 1.19c-.05.22-.18.24-.3.04l-.15-.25c-.11-.2-.16-.54-.12-.77l.28-1.19c.05-.21.18-.23.3-.03zM58.56 76.07c-.08.02-.24-.02-.36-.09-.13-.07-.17-.15-.09-.16.08-.02.24.03.37.11.12.05.16.13.08.14zM32.36 74.05l-.27-.03a.64.64 0 0 0-.38.1l-.69.5c-.1.07-.08.13.04.15l.27.03c.12.01.29-.04.38-.1l.69-.5c.1-.07.08-.13-.04-.15zM29.09 65.05c-.01.05.03.14.08.21l.02.04c.05.06.09.07.1.03.01-.05-.03-.14-.08-.21l-.03-.04c-.04-.07-.09-.09-.09-.03zM35.41 53.58c.06-.03.13-.1.15-.17l.05-.13c.03-.06 0-.1-.05-.07-.06.03-.13.1-.15.18l-.05.13c-.02.05 0 .08.05.06zM39.23 51.81l.1-.22c.06-.14.07-.4.01-.55l-.32-.87c-.06-.15-.16-.16-.22 0l-.09.22c-.06.15-.07.39-.02.55l.32.87c.07.15.17.15.22 0zM19.72 46.45l.05-.05a.37.37 0 0 0 .12-.24l.03-.36c.01-.08-.03-.1-.09-.04l-.05.04a.37.37 0 0 0-.12.24l-.04.36c-.01.08.04.1.1.05zM44.4 43.7l.09-.31c.03-.1.01-.26-.03-.35l-.41-.8c-.05-.09-.11-.09-.14.01l-.09.31c-.03.1-.01.26.03.35l.41.8c.05.1.1.09.14-.01zM39.98 53.67a.542.542 0 0 0-.38-.03l-.26.06c-.11.03-.13.09-.04.14.1.05.26.07.38.04l.27-.07c.1-.03.12-.09.03-.14zM8.59 29.58h-.06c-.22-.03-.51-.19-.65-.36l-.5-.58c-.14-.17-.08-.28.15-.25l.05.01c.22.03.51.19.66.36l.5.58c.13.16.07.28-.15.24zM1.79 35.34c.02.04.03.13.01.2l-.02.07c-.02.07-.06.09-.08.05a.366.366 0 0 1-.01-.21l.02-.07c.02-.07.05-.09.08-.04zM4.52 39.62v.2c0 .18-.11.44-.24.57l-.65.66c-.13.13-.23.09-.23-.09v-.2c0-.18.12-.45.25-.57l.64-.66c.13-.14.24-.1.23.09zM24.49 55.64c.06-.1.22-.2.34-.24l.28-.08c.13-.03.18.02.12.11-.06.1-.22.2-.35.24l-.28.07c-.12.05-.17 0-.11-.1zM23.83 52.75c-.1.03-.28.01-.4-.05l-.16-.07c-.13-.06-.15-.13-.05-.16.1-.03.28-.01.4.06l.16.07c.13.06.15.12.05.15zM26.37 74.12c-.14 0-.35-.1-.46-.21l-.25-.25c-.12-.12-.09-.2.05-.19.14.01.35.1.46.22l.24.25c.13.1.1.19-.04.18zM3.8 50.55c-.13-.13-.4-.25-.61-.26l-.48-.02c-.21-.01-.27.08-.14.21.13.14.4.24.6.25l.49.02c.22.02.28-.08.14-.2zM1.98 24.66l.17-.24c.06-.09.18-.17.28-.2l.82-.19c.1-.03.13.02.07.11l-.16.24c-.06.08-.18.17-.28.19l-.82.19c-.1.03-.14-.02-.08-.1zM8.8 69.24c-.13.11-.39.22-.58.22h-.44c-.19.01-.25-.09-.12-.21.12-.12.39-.21.58-.21h.45c.17-.02.23.08.11.2zM10.53 77.1l.03.25a.41.41 0 0 1-.07.26l-.41.56c-.05.06-.1.05-.1-.03l-.03-.24a.41.41 0 0 1 .07-.26l.42-.56c.04-.08.08-.06.09.02zM14.05 74.66c-.01.06-.07.17-.14.22l-.12.09c-.07.05-.12.03-.1-.03a.38.38 0 0 1 .14-.22l.12-.09c.06-.05.11-.04.1.03zM20.19 77.65v-.01c-.01-.07.01-.17.05-.22l.12-.19c.04-.05.08-.04.09.02v.01c.01.07-.01.17-.05.22l-.13.19c-.03.05-.07.05-.08-.02zM25.78 76.42a.635.635 0 0 0-.17-.37l-.25-.24c-.09-.09-.16-.06-.15.05.01.12.09.29.17.37l.25.24c.09.1.15.07.15-.05zM33.92 63.48l-.01.09c-.01.07.02.18.07.24l.23.3c.05.06.09.04.1-.03l.01-.09a.372.372 0 0 0-.07-.24l-.24-.3c-.04-.05-.08-.04-.09.03zM54.33 68.24l.1.15c.07.09.21.18.32.2l.65.13c.11.02.15-.03.08-.12l-.1-.14a.604.604 0 0 0-.32-.2l-.65-.13c-.11-.03-.14.02-.08.11zM22.68 52.75h.01c.07-.06.13-.18.15-.26l.04-.28c.01-.09-.04-.11-.11-.05l-.01.01c-.07.05-.14.18-.15.26l-.03.28c-.01.07.03.1.1.04zM58.76 47.22l-.08-.01a.329.329 0 0 0-.22.05l-.3.19c-.06.03-.05.07.02.08l.08.01c.07.01.16-.01.22-.05l.29-.19c.06-.03.05-.07-.01-.08zM36.55 28.8l.04.05c.08.1.25.19.38.22l.49.08c.13.02.17-.04.09-.14l-.03-.05a.7.7 0 0 0-.38-.22l-.5-.08c-.13-.02-.17.04-.09.14zM77.96 28.82l-.04.03a.85.85 0 0 1-.54.1l-.56-.11c-.16-.03-.18-.12-.04-.21l.05-.03c.14-.08.37-.13.53-.1l.57.11c.15.03.17.13.03.21zM65.76 47.31c-.15.03-.34.15-.44.28l-.24.31c-.1.13-.06.21.09.19.15-.03.34-.15.44-.28l.24-.32c.09-.12.05-.2-.09-.18zM75.11 28.59l.01-.03a.94.94 0 0 0-.02-.55l-.22-.5c-.06-.15-.16-.14-.21.01l-.01.03c-.05.15-.04.39.02.54l.22.51c.06.14.16.14.21-.01zM75.28 23.17l.04-.01c.15-.05.34-.21.42-.35l.26-.51c.08-.14.02-.21-.14-.16l-.04.01c-.15.05-.34.21-.41.35l-.27.49c-.08.16-.02.23.14.18zM59.97 19.48l-.25-.14a.84.84 0 0 0-.54-.08l-.97.21c-.16.03-.17.13-.03.21l.24.14c.14.08.38.12.54.09l.97-.22c.16-.04.18-.13.04-.21zM68.52 19.09l.24-.11c.14-.07.39-.08.54-.03l.92.3c.16.05.16.15.01.21l-.24.11c-.14.06-.39.08-.54.03l-.92-.3c-.15-.04-.16-.14-.01-.21zM74.92 51.46l-.13-.1c-.12-.11-.36-.18-.52-.17l-.78.04c-.16.01-.19.1-.07.2l.13.11c.13.1.36.18.52.17l.78-.04c.17-.01.2-.11.07-.21zM55.33 2.43a.793.793 0 0 1-.34-.38l-.13-.32c-.06-.15-.01-.22.12-.16.12.06.28.23.34.38l.12.32c.07.15.02.23-.11.16zM71.61 9.11l-.09-.39c-.03-.16 0-.4.08-.54l.61-1.06c.08-.14.17-.13.21.03l.09.39c.03.16 0 .4-.08.54l-.61 1.06c-.09.14-.18.13-.21-.03zM49.38 17.13h-.02c-.15.05-.39.03-.54-.04l-.47-.22c-.15-.07-.14-.16.02-.21l.02-.01c.15-.05.4-.03.54.04l.47.22c.15.07.14.16-.02.22zM61.67 11.86l.04.01c.15.05.33.21.41.36l.27.49c.08.14.01.22-.14.16l-.04-.01a.827.827 0 0 1-.41-.35l-.27-.49c-.07-.14-.01-.22.14-.17zM54.74 15.41c.06.02.16.11.23.21.06.1.06.17 0 .15a.534.534 0 0 1-.22-.21c-.07-.1-.07-.17-.01-.15zM29.37 42.18c.1-.08.21-.27.23-.43l.05-.26c.03-.16-.03-.23-.13-.15-.1.08-.21.27-.24.43l-.05.26c-.02.17.04.23.14.15zM32.02 32.49c.11.04.32.03.47-.03l.18-.07c.15-.06.18-.14.07-.18-.11-.04-.32-.03-.47.03l-.18.07c-.15.06-.18.14-.07.18zM9.69 23.11l.25.28c.11.12.32.23.49.24l1.16.1c.16.02.2-.07.09-.19l-.25-.28a.816.816 0 0 0-.49-.24l-1.15-.1c-.16-.02-.21.07-.1.19zM44.86 16.23c-.04-.07-.19-.17-.33-.21-.15-.05-.23-.02-.19.05.04.07.2.17.34.21.13.04.22.02.18-.05zM37.71 11.56l-.33-.06a.85.85 0 0 0-.54.1l-.93.58c-.14.09-.12.18.04.21l.33.07c.16.03.4-.02.54-.1l.94-.59c.12-.09.11-.18-.05-.21zM73.93 7.3l-.18.07c-.15.06-.32.23-.39.38l-.35.76c-.07.14 0 .21.14.15l.18-.07c.15-.06.32-.23.39-.38l.35-.76c.07-.14.01-.21-.14-.15zM49.76 35.67h-.13c-.16 0-.39.08-.51.19l-.54.48c-.12.11-.09.2.07.2h.14c.16 0 .39-.08.51-.19l.55-.48c.1-.1.07-.2-.09-.2zM53.15 42.58c.11-.05.33-.05.48 0l.23.07c.15.05.18.14.07.19-.11.05-.33.06-.48.01l-.23-.07c-.15-.06-.18-.14-.07-.2zM57.78 42.12l.18-.09c.14-.07.39-.09.54-.04l.83.25c.15.05.16.14.02.21l-.19.09c-.15.07-.39.09-.54.04l-.83-.25c-.14-.04-.15-.13-.01-.21zM65.68 7.68c.03-.14.16-.32.3-.41l.28-.19c.14-.09.22-.05.19.08-.03.14-.17.32-.3.41l-.28.19c-.14.09-.22.06-.19-.08zM41.09 22.02c-.05-.15-.03-.4.03-.54l.2-.44c.07-.14.16-.14.21.01.05.15.04.4-.03.54l-.2.44c-.06.14-.16.14-.21-.01zM46.97 16h-.02a.895.895 0 0 1-.49-.23l-.36-.37c-.11-.12-.07-.21.09-.2h.01c.17.01.39.11.5.23l.35.38c.12.12.09.2-.08.19zM46.25 32.11l.34-.06c.16-.03.4.02.53.11l.94.6c.14.09.12.18-.05.21l-.34.06c-.16.03-.4-.02-.53-.11l-.93-.6c-.14-.09-.12-.18.04-.21zM23.76 9.64c-.16.02-.38.14-.48.26l-.32.38c-.11.12-.06.21.1.19h.01c.16-.02.38-.14.48-.26l.32-.38c.1-.13.05-.21-.11-.19zM50.27 16.42c.11-.05.25-.21.31-.36l.08-.18c.06-.15.02-.23-.08-.18-.11.05-.25.21-.31.36l-.07.18c-.07.14-.03.23.07.18zM32.72 4.96c-.1.13-.18.37-.16.53l.04.5c.01.16.1.19.2.06l.01-.01c.1-.13.18-.36.16-.52l-.04-.5c-.02-.16-.11-.19-.21-.06zM47.41 28.11c-.08.09-.15.29-.16.45v.21c0 .16.06.22.15.14.08-.09.15-.29.16-.45v-.21c-.01-.17-.07-.23-.15-.14zM7.05 11.81a.91.91 0 0 1 .26-.48l.36-.3c.13-.1.21-.06.18.1-.02.16-.13.37-.26.47l-.36.3c-.11.11-.2.07-.18-.09zM15.87 2.71l-.02-.1c-.04-.16 0-.4.08-.54l.33-.58c.08-.14.17-.13.21.03l.02.1c.04.16 0 .4-.07.54l-.33.59c-.09.13-.18.12-.22-.04zM29.55 9.96l.13.16c.1.12.18.36.18.52l-.04.86c-.01.16-.1.19-.2.07l-.13-.16a.958.958 0 0 1-.18-.52l.04-.86c0-.16.09-.19.2-.07zM30.2 3.24c-.11-.03-.26-.17-.34-.31l-.07-.13c-.08-.14-.06-.23.04-.19.1.03.25.17.34.31l.07.13c.09.14.07.22-.04.19zM10.61 11l-.03-.08a.863.863 0 0 1 0-.55l.24-.6c.06-.15.15-.15.21 0l.03.08c.06.15.06.4 0 .55l-.23.6c-.06.15-.16.15-.22 0zM6.05 26.71l-.22.17c-.12.1-.36.18-.52.17l-.99-.06c-.16-.01-.19-.1-.07-.2l.22-.18c.13-.1.36-.18.52-.17l.98.06c.18.02.21.1.08.21zM11.85 34.28l.16-.13c.13-.1.36-.16.53-.15l.86.09c.16.02.19.11.06.21l-.17.13c-.13.1-.36.16-.52.15l-.86-.08c-.16-.03-.19-.12-.06-.22zM19.72 8c-.03.06-.02.21.02.33.04.12.1.17.13.1.02-.06.02-.21-.02-.33-.04-.12-.1-.17-.13-.1zM40.06 39.74l.23.19c.13.1.24.32.26.48l.14 1.03c.02.16-.06.21-.18.11l-.23-.19a.874.874 0 0 1-.26-.48l-.15-1.03c-.02-.17.06-.22.19-.11zM19.43 16.12a.971.971 0 0 1-.44-.33l-.25-.41c-.09-.14-.03-.21.13-.17.16.05.35.19.43.33l.25.42c.09.13.03.21-.12.16zM18.66 15.9l.03.02c.14.09.28.28.32.44l.14.53c.04.16-.03.21-.17.13l-.03-.02a.933.933 0 0 1-.32-.44l-.14-.52c-.04-.16.04-.22.17-.14zM20.44 26.09c-.14 0-.34-.09-.46-.21l-.23-.22c-.12-.11-.1-.2.03-.2.14 0 .34.09.45.2l.24.22c.12.12.11.21-.03.21zM7.57 31.89l.02-.1a.82.82 0 0 1 .28-.47l.53-.42c.13-.1.21-.05.18.11l-.01.1c-.03.16-.15.37-.28.47l-.53.42c-.13.1-.21.05-.19-.11zM61.52 27.65c.02.09.14.23.27.33l.01.01c.13.09.22.1.2.01-.02-.09-.14-.24-.27-.33h-.01c-.13-.11-.22-.11-.2-.02zM48.42 8.74l-.13.14a.93.93 0 0 0-.18.52l.02.82c0 .16.09.2.2.08l.12-.14c.1-.12.19-.35.18-.51l-.02-.83c.01-.17-.08-.2-.19-.08zM53.49 27.91c-.03-.1-.17-.24-.31-.32l-.08-.05c-.14-.08-.23-.07-.2.03s.17.24.31.33l.09.05c.13.08.22.06.19-.04zM31.85 6.78c.02.1.15.26.29.35l.1.07c.13.09.22.08.2-.03-.02-.11-.15-.26-.29-.35l-.1-.07c-.13-.08-.22-.07-.2.03zM35.96 2.32l-.04-.07a.856.856 0 0 0-.43-.34l-.59-.18c-.16-.05-.22.03-.14.17l.04.06c.08.14.27.29.43.34l.59.19c.16.04.22-.03.14-.17zM56.35 48.7l.21-.07c.15-.05.4-.03.55.03l.8.37c.15.07.14.16-.01.21l-.21.07c-.15.05-.4.03-.54-.03l-.8-.37c-.16-.07-.16-.16 0-.21zM66.65 40.33l.14-.28c.07-.15.25-.31.4-.37l.99-.38c.15-.06.21.01.14.15l-.14.28c-.07.15-.25.31-.4.37l-.98.39c-.16.06-.22-.01-.15-.16zM73.83 77.2l.01-.12c.01-.16.13-.38.24-.49l.52-.47c.12-.11.21-.06.19.1l-.01.12c-.02.16-.13.38-.24.49l-.52.47c-.12.11-.21.07-.19-.1zM76.24 74.36c.09.06.19.23.23.39l.02.1c.03.16 0 .24-.09.18-.08-.06-.18-.23-.22-.39l-.02-.1c-.05-.16-.01-.24.08-.18z" class="st0"/><path d="M74.88 73.65c.15.01.35.13.46.25l.25.29c.11.12.08.21-.07.19a.894.894 0 0 1-.46-.24l-.26-.29c-.1-.13-.07-.22.08-.2zM74.3 78.62l-.05-.23c-.03-.16.01-.4.09-.54l.48-.79c.09-.14.18-.12.21.03l.05.23c.03.16-.01.4-.09.54l-.48.79c-.09.14-.18.13-.21-.03zM61.36 74.8c.03-.11.16-.27.3-.36l.14-.09c.13-.09.22-.07.19.04-.03.11-.16.27-.29.36l-.14.09c-.14.09-.23.07-.2-.04zM34.38 70.97c-.07.05-.16.22-.2.38-.03.16-.01.24.07.2.07-.05.16-.22.19-.38.04-.16.01-.25-.06-.2zM21.82 62.73c.15.01.37-.07.5-.17l.32-.26c.13-.1.1-.19-.05-.2a.89.89 0 0 0-.51.17l-.32.27c-.12.09-.1.18.06.19zM21.61 55.1l.04-.09c.08-.14.11-.38.07-.54l-.16-.65c-.04-.16-.14-.17-.22-.03l-.05.09c-.07.14-.1.39-.06.54l.16.65c.04.16.14.17.22.03zM29.6 54.83l.23-.27c.1-.12.32-.23.48-.25l1.12-.11c.16-.02.2.07.09.19l-.23.26c-.1.12-.33.23-.48.25l-1.12.11c-.15.02-.2-.06-.09-.18zM55.88 54.68l-.09.32c-.04.16-.18.35-.32.44l-.92.58c-.14.08-.21.03-.17-.13l.09-.32c.04-.16.19-.35.32-.44l.93-.59c.12-.07.2-.01.16.14zM63.65 59.77a.807.807 0 0 1-.28-.38l-.07-.2c-.05-.15 0-.23.1-.17s.23.23.28.39l.06.2c.05.14.01.21-.09.16zM57.72 63.84a.806.806 0 0 1-.47-.16l-.23-.17c-.13-.1-.13-.19.01-.2.13-.01.34.06.47.15l.23.17c.12.11.12.2-.01.21zM62.66 63.32c-.04.08-.19.18-.34.24-.15.06-.23.04-.2-.04.04-.07.19-.18.34-.24.14-.05.24-.04.2.04zM30.94 66.24c.08.06.28.1.44.08l.09-.01c.16-.02.22-.08.15-.14-.08-.06-.28-.1-.44-.09l-.1.01c-.16.02-.22.09-.14.15zM37.9 57.35c-.12.05-.28.21-.35.36l-.12.27c-.07.15-.02.22.09.18.13-.05.28-.21.35-.36l.13-.28c.07-.15.02-.23-.1-.17zM41.28 51.13l-.03-.24a.86.86 0 0 0-.25-.48l-.7-.61c-.12-.11-.21-.06-.18.1l.02.24c.02.16.13.38.25.49l.69.61c.14.1.22.05.2-.11zM20.17 51.51l.06-.14c.06-.15.06-.4.01-.55l-.26-.7c-.06-.15-.15-.15-.21-.01l-.05.13c-.06.15-.07.4-.01.55l.26.7c.04.17.14.17.2.02zM41.87 55.42a.825.825 0 0 0-.24-.46l-.27-.25c-.12-.11-.21-.08-.2.06.01.15.11.35.23.46l.27.25c.13.12.22.09.21-.06zM6.51 34.34h.05c.16.01.38.12.49.24l.39.41c.11.12.07.2-.09.19h-.04a.902.902 0 0 1-.5-.24l-.38-.41c-.12-.11-.08-.2.08-.19zM3.67 42.89c-.11.02-.31-.04-.45-.13l-.14-.09c-.13-.09-.15-.18-.05-.19.12-.02.31.04.45.12l.15.09c.14.09.15.18.04.2zM6.6 42.1l.08.15c.08.14.1.39.07.54l-.2.78c-.04.16-.13.17-.21.03l-.08-.16a.844.844 0 0 1-.07-.54l.21-.78c.03-.15.12-.16.2-.02zM22.79 51.41c-.09.09-.29.16-.45.16h-.22c-.16 0-.22-.06-.13-.15.09-.08.3-.16.46-.16h.22c.14 0 .2.07.12.15zM26.31 76.43c.13-.06.36-.06.51-.01l.33.12c.15.05.17.14.04.2s-.36.06-.51.01l-.33-.11c-.15-.06-.17-.16-.04-.21zM1.97 70.3l.03.31c.02.16.13.38.25.49l.78.71c.12.11.21.07.19-.09l-.03-.32c-.01-.16-.13-.38-.24-.49l-.79-.7c-.12-.11-.21-.07-.19.09zM5.01 40.76c.06.11.25.23.4.27l.25.07c.15.04.22-.01.16-.12-.07-.11-.25-.23-.4-.28l-.25-.07c-.15-.03-.22.03-.16.13zM9.88 52.68a.806.806 0 0 0-.37-.36l-.35-.15c-.16-.08-.23-.02-.17.11.06.14.22.3.37.36l.36.16c.15.07.22.01.16-.12zM7.36 72.67c-.09-.11-.15-.34-.14-.5l.03-.36c.01-.16.1-.2.18-.09.09.11.15.34.14.5l-.03.37c-.01.16-.09.19-.18.08zM11.47 78.94l-.41.31a.9.9 0 0 1-.53.14l-1.41-.16c-.16-.02-.18-.11-.06-.21l.41-.31a.9.9 0 0 1 .53-.14l1.41.16c.18.03.2.12.06.21zM3.93 78.97l-.09-.34c-.04-.16-.01-.4.06-.54l.52-1c.08-.14.17-.13.22.02l.09.34c.04.16.01.4-.06.54l-.53 1c-.08.15-.17.14-.21-.02zM19.97 77.95c-.13-.02-.32-.14-.43-.26l-.18-.22c-.1-.13-.08-.21.05-.19.13.02.32.13.43.26l.18.22c.1.12.08.2-.05.19zM30.3 76.63c.15.06.39.05.54-.01l.43-.18c.15-.06.15-.16 0-.21a.833.833 0 0 0-.54.01l-.43.18c-.15.06-.15.15 0 .21zM39.23 64.11l-.18-.07a.832.832 0 0 0-.54 0l-.78.3c-.15.06-.15.16 0 .21l.17.07c.15.06.4.06.55 0l.78-.3c.15-.06.15-.15 0-.21zM58.17 69.03l.19-.17c.12-.11.23-.33.24-.49l.09-.96c.02-.16-.07-.21-.18-.1l-.2.17c-.11.11-.23.33-.24.49l-.09.96c-.02.17.07.21.19.1zM26.9 59.18l-.01-.02a.838.838 0 0 0-.31-.45l-.43-.29c-.13-.09-.21-.03-.17.12v.02c.04.16.18.36.31.45l.43.29c.14.1.22.04.18-.12zM58.67 46.78l.17.11c.13.08.37.13.53.1l.84-.16c.16-.03.17-.12.04-.21l-.17-.11a.82.82 0 0 0-.53-.1l-.84.16c-.16.03-.18.13-.04.21zM37.7 30.64l-.03-.07a.866.866 0 0 0-.38-.4l-.56-.26c-.15-.07-.22 0-.15.15l.03.07c.06.15.23.33.37.4l.57.27c.15.05.22-.01.15-.16zM13.47 73.67l-.02-.21c-.01-.15.05-.37.14-.49l.51-.67c.09-.12.18-.1.2.06l.02.21a.78.78 0 0 1-.14.49l-.51.67c-.1.11-.19.09-.2-.06zM24.97 32.69l.02-.01c.12-.08.25-.26.29-.4l.12-.46c.03-.14-.03-.19-.16-.11l-.02.01c-.12.08-.25.26-.29.4l-.13.47c-.03.13.04.18.17.1zM48.52 57.66l-.05-.03a.599.599 0 0 0-.34-.11l-.42.03c-.11.01-.13.06-.04.13l.04.03c.08.06.23.11.34.1l.41-.03c.12 0 .14-.05.06-.12zM44.63 51.23c.11.01.3-.03.42-.11l.22-.15c.11-.07.11-.15 0-.17-.12-.02-.3.03-.42.11l-.22.14c-.12.09-.12.16 0 .18zM52 45.11l-.04-.05c-.15-.17-.47-.33-.69-.35l-.81-.08c-.23-.02-.29.1-.14.27l.05.05c.16.17.47.32.69.35l.82.07c.21.03.28-.09.12-.26zM12.67 71.12c-.05.11-.21.27-.37.35l-.18.09c-.16.07-.24.05-.2-.07.04-.11.21-.28.36-.35l.18-.09c.17-.08.26-.05.21.07zM13.95 56.87c.04.08.05.24.01.36l-.05.17c-.04.11-.1.14-.14.05-.04-.08-.04-.25-.01-.36l.06-.17c.03-.11.09-.13.13-.05zM9.61 39.57c.02-.11.12-.28.23-.36l.23-.18c.11-.08.18-.06.16.06-.01.11-.12.28-.23.36l-.22.18c-.11.08-.19.05-.17-.06zM31.53 37.49l-.03-.04a.945.945 0 0 0-.49-.36l-.61-.16c-.18-.04-.24.04-.15.19l.03.04c.09.15.31.31.48.35l.62.17c.18.04.24-.04.15-.19zM43.12 51.71l-.01-.27c0-.08-.06-.21-.12-.27l-.55-.54c-.06-.06-.11-.05-.11.04l.01.27c0 .09.06.21.12.27l.55.54c.06.06.11.04.11-.04zM34.04 56.47l.02.06c.02.06.08.13.14.16l.28.15c.06.03.09.01.06-.06l-.02-.06a.364.364 0 0 0-.14-.16l-.28-.14c-.05-.03-.08 0-.06.05zM39.59 76.71l-.14-.04a.887.887 0 0 0-.51.04l-.64.31c-.14.06-.13.15.02.19l.14.04c.14.04.37.02.51-.04l.65-.31c.12-.06.11-.15-.03-.19zM41.07 72.27a1.08 1.08 0 0 0-.62-.11l-.41.06c-.2.03-.24.13-.1.22.15.09.43.14.63.11l.42-.06c.19-.03.23-.12.08-.22zM44.49 56.84l-.32.04a.81.81 0 0 0-.39.2l-.64.73c-.08.1-.05.16.08.15l.32-.04a.73.73 0 0 0 .39-.2l.64-.73c.09-.1.06-.16-.08-.15zM20.33 73.33c.09.09.3.16.46.16h.27c.16.01.21-.06.12-.15s-.3-.16-.46-.16h-.27c-.16-.01-.22.06-.12.15zM34.42 76.35l-.14.2c-.11.17-.36.34-.57.38l-1.02.23c-.2.04-.26-.05-.15-.22l.13-.19c.12-.16.37-.34.57-.38l1.03-.24c.21-.04.27.06.15.22zM22.95 71.91l-.09.05a.91.91 0 0 1-.6.14l-.73-.1c-.19-.02-.22-.13-.06-.23l.08-.06c.15-.1.42-.17.61-.14l.73.1c.18.04.2.14.06.24zM30.42 39.11a.558.558 0 0 1-.13-.37l.01-.33c0-.12.07-.14.14-.06.08.09.14.25.13.37l-.01.33c0 .12-.06.14-.14.06zM50.84 31.66l.14-.07c.08-.04.22-.05.3-.03l.55.15c.09.02.09.08.01.11l-.15.07c-.08.04-.22.05-.3.03l-.54-.14c-.08-.03-.09-.08-.01-.12zM67.78 40.1a.5.5 0 0 0-.08.3l.02.2c.01.1.06.12.12.05.05-.07.08-.2.07-.3l-.02-.21c-.02-.08-.06-.11-.11-.04zM56.02 69.83v.09c.01.1.08.24.15.31l.34.32c.08.07.13.05.12-.05l-.01-.09c0-.1-.07-.24-.15-.31l-.34-.33c-.06-.06-.11-.04-.11.06zM70.96 50.24c-.03.06-.04.2-.01.32.02.12.07.17.1.11.03-.06.04-.2.01-.32s-.07-.16-.1-.11zM72.14 78.41l.18-.11c.16-.1.35-.33.4-.52l.28-.91c.06-.18-.04-.26-.21-.16l-.19.11a1 1 0 0 0-.4.51l-.28.92c-.04.19.05.25.22.16zM47.77 69.94l-.05.02c-.13.05-.28.18-.34.3l-.23.45c-.06.12 0 .18.13.13l.05-.02c.13-.05.28-.18.34-.31l.22-.44c.06-.12.01-.18-.12-.13zM41.04 76.67c-.12.12-.35.22-.52.22l-.5.02c-.17.01-.21-.08-.09-.2.12-.12.35-.22.52-.23l.5-.03c.16.02.21.11.09.22zM67.82 68.87l-.05-.06a.463.463 0 0 1-.11-.32l.02-.43c0-.1.06-.12.13-.04l.05.06c.06.08.11.22.1.32l-.02.43c.01.1-.05.12-.12.04zM39.74 67.22l.09.03a.4.4 0 0 1 .19.15l.2.35c.03.06.01.09-.06.07l-.09-.03a.333.333 0 0 1-.19-.16l-.2-.35c-.04-.05-.01-.08.06-.06zM57.08 49.74c-.02-.15.06-.43.18-.62l.1-.15c.13-.19.25-.22.28-.07.03.14-.06.43-.18.62l-.1.15c-.13.18-.25.22-.28.07zM71.33 61.56l-.03-.01a.618.618 0 0 1-.35-.26l-.23-.38c-.07-.11-.02-.17.1-.13l.03.01c.12.03.28.15.35.26l.24.38c.06.1.01.16-.11.13zM22.85 34.74c-.2.03-.45.19-.56.33l-.36.45c-.12.16-.06.25.13.23.2-.04.45-.19.57-.34l.35-.45c.12-.16.06-.26-.13-.22zM21.47 56.34c.08-.14.11-.38.08-.55l-.12-.47c-.04-.16-.14-.17-.22-.03-.09.14-.12.39-.08.55l.12.47c.03.16.13.18.22.03zM15.75 63.69c.07-.01.17-.05.22-.11l.11-.11c.05-.06.04-.1-.02-.09a.46.46 0 0 0-.22.11l-.1.11c-.07.05-.06.09.01.09zM14.27 9.37l-.22.31c-.04.07-.14.13-.22.15l-.91.22c-.08.02-.1-.02-.06-.09l.21-.31c.04-.06.15-.13.23-.15l.91-.22c.08-.01.1.02.06.09zM42.8 22c.1.06.28.09.41.07l.26-.04c.13-.02.17-.09.07-.15-.09-.06-.28-.09-.42-.07l-.26.04c-.12.02-.16.08-.06.15zM51.19 37.14a.657.657 0 0 0-.12-.44l-.2-.28c-.08-.12-.16-.1-.18.03-.01.13.04.32.12.43l.2.28c.08.12.16.11.18-.02zM20.71 23.06l-.1-.04a.41.41 0 0 0-.22 0l-.36.14c-.06.02-.06.06 0 .09l.09.03c.06.02.16.02.22 0l.36-.14c.07-.02.07-.06.01-.08zM14.35 41.65l-.03-.01a.947.947 0 0 1-.52-.3l-.37-.47c-.11-.14-.06-.23.12-.2h.03c.18.03.41.17.52.31l.37.47c.11.13.06.23-.12.2zM20.84 1.33c-.13.07-.35.11-.5.08l-.43-.09c-.14-.03-.16-.11-.03-.18.13-.07.35-.11.49-.08l.44.09c.15.02.16.11.03.18zM10.81 15.11c.02.25-.09.65-.26.88l-.39.52c-.17.23-.34.22-.36-.03-.03-.25.08-.65.26-.88l.38-.52c.17-.24.34-.22.37.03zM7.78 20.2a.58.58 0 0 1-.29-.18l-.06-.08c-.08-.09-.08-.15 0-.15.08.01.21.09.29.18l.06.07c.08.1.08.17 0 .16zM9.23 2.57l.11-.18c.09-.14.3-.3.48-.35l.9-.25c.17-.05.23.03.14.18l-.12.19c-.09.14-.3.3-.48.35l-.9.25c-.16.04-.22-.04-.13-.19zM15.32 21.61l-.09.08c-.13.12-.38.2-.56.2l-.73-.03c-.18-.01-.22-.1-.08-.21l.08-.07c.13-.12.38-.2.55-.2l.74.02c.18 0 .23.1.09.21zM46.59 40.75l-.35.02c-.12.01-.27.08-.35.15l-.7.69c-.08.08-.05.14.07.14l.35-.01c.11-.01.27-.08.35-.16l.7-.69c.07-.09.04-.15-.07-.14zM30.11 2.76l.07-.21a.6.6 0 0 0-.02-.35l-.3-.65c-.05-.09-.11-.09-.14.01l-.07.21c-.03.1-.02.26.02.35l.3.65c.05.09.11.09.14-.01zM46.11 9.36l.06.05c.15.11.42.19.61.17l.7-.06c.18-.02.21-.12.06-.24l-.06-.04c-.15-.11-.43-.19-.62-.18l-.69.06c-.18.02-.21.12-.06.24zM25.78 19.92c.14.02.35-.04.48-.13l.25-.17c.13-.09.13-.17-.01-.19a.691.691 0 0 0-.47.13l-.27.17c-.11.09-.11.17.02.19zM13.36 5.89l.15.16c.07.07.2.14.29.15l.69.07c.1.01.13-.05.06-.12L14.41 6a.537.537 0 0 0-.3-.15l-.69-.07c-.1-.02-.13.04-.06.11zM26.3 38.96a.29.29 0 0 0-.18.08l-.04.04c-.05.04-.06.08-.01.08.04 0 .12-.03.17-.07l.05-.04c.05-.05.05-.09.01-.09zM35.19 19.53c-.05.02-.14.01-.21-.01l-.07-.02c-.07-.02-.09-.06-.04-.08.05-.02.14-.01.21.01l.07.02c.07.03.08.06.04.08zM56.38 20.43l-.1.15c-.04.06-.13.12-.2.13l-.53.12c-.07.01-.09-.02-.05-.08l.1-.14c.04-.06.13-.12.2-.13l.53-.12c.07-.03.09.01.05.07zM44.58 10.78l-.11-.1c-.14-.12-.27-.36-.3-.54l-.09-.78c-.02-.18.07-.23.22-.12l.1.08c.14.11.28.36.3.54l.1.79c.02.19-.07.24-.22.13zM48.97 23.35l.05.04c.05.04.11.12.12.19l.06.31c.01.06-.02.08-.08.04l-.06-.04a.387.387 0 0 1-.12-.19l-.06-.31c0-.06.03-.09.09-.04zM56.69 25.91l.02.01c.08.03.16.1.21.17l.14.24c.04.07.01.11-.07.08l-.02-.01a.443.443 0 0 1-.21-.17l-.14-.24c-.03-.07 0-.11.07-.08z" class="st0"/><path d="m56.33 25.77.03.1c.02.06.08.14.13.18l.35.22c.06.03.09.01.07-.05l-.03-.11c-.02-.06-.07-.14-.13-.17l-.34-.21c-.06-.05-.09-.03-.08.04zM69.15 6.26v-.02a.736.736 0 0 0-.27-.31l-.35-.19c-.11-.06-.16-.01-.13.1v.01c.04.12.16.26.27.31l.35.19c.11.07.17.02.13-.09zM43.58 11.26c-.13.01-.3.09-.39.18l-.23.24c-.09.09-.07.16.05.16.12-.01.3-.09.39-.18l.23-.23c.09-.1.07-.17-.05-.17zM59.64 47.93l.07-.03c.08-.03.2-.03.28 0l.35.13c.08.03.08.07 0 .1l-.07.03c-.07.03-.2.03-.27 0l-.35-.13c-.08-.02-.08-.07-.01-.1zM38.47 47.66l.13-.18c.05-.06.14-.11.21-.12l.62-.11c.07-.01.1.02.05.08l-.14.18c-.05.06-.14.11-.21.12l-.62.11c-.06.02-.08-.02-.04-.08zM50.84 32.33v.01a.36.36 0 0 1-.15.15l-.19.09c-.06.02-.08 0-.06-.05l.01-.01c.02-.06.09-.12.15-.15l.19-.09c.05-.03.08-.01.05.05zM58.16 4.63a.432.432 0 0 1-.17-.21l-.07-.23c-.02-.08.01-.11.08-.07.07.04.15.14.17.21l.07.23c.03.09-.01.12-.08.07zM43.29 6.03c.04.09.05.25.01.35l-.08.24c-.03.1-.09.12-.14.03a.522.522 0 0 1-.01-.35l.07-.24c.04-.11.1-.12.15-.03zM53.81 40.58l-.24-.17a.597.597 0 0 1-.24-.36l-.19-.9c-.02-.13.04-.17.14-.1l.24.17c.1.07.21.24.24.36l.19.9c.03.13-.03.17-.14.1zM4.49 16.13c-.02.13.04.34.13.47l.15.21c.09.13.18.14.2.02a.72.72 0 0 0-.13-.47l-.14-.21c-.1-.14-.19-.15-.21-.02zM25.47 36.12h-.09c-.14.01-.34.09-.45.18l-.43.4c-.1.1-.07.18.07.17h.09c.14 0 .35-.09.45-.18l.43-.4c.1-.09.07-.18-.07-.17zM66.59 79.26l-.06.11c-.03.06-.12.14-.2.16l-.44.14c-.08.02-.1-.01-.07-.07l.07-.11c.03-.07.13-.14.2-.16l.43-.14c.07-.03.1 0 .07.07zM69.77 71.56c.16-.05.46-.02.66.06l.33.15c.2.09.22.2.06.26-.17.05-.46.02-.66-.06l-.33-.15c-.21-.1-.23-.21-.06-.26zM76.25 73.32l.06-.22c.02-.06.07-.15.13-.18l.53-.35c.06-.04.09-.01.07.05l-.06.23c-.01.06-.07.14-.13.18l-.53.35c-.05.02-.08 0-.07-.06zM58.16 60.41c.08-.08.31-.14.5-.15.2-.01.3.05.23.12-.08.08-.31.15-.51.15-.19.01-.29-.04-.22-.12zM1.26.49C1.2.58 1.04.69.9.73L.66.79C.52.82.46.78.52.68.58.59.74.48.88.44l.24-.06c.14-.04.2.02.14.11zM1.46 1.23c.08-.08.31-.14.5-.15.2-.01.3.05.23.12-.08.08-.31.15-.51.15-.2.01-.29-.04-.22-.12zM72.99 61.05l-.03-.01c-.06-.02-.15-.07-.18-.13l-.14-.22c-.04-.06-.01-.09.05-.07l.03.01c.06.02.15.07.18.13l.14.22c.04.06.02.09-.05.07zM70.59 32.54l-.03.01c-.15.05-.4.05-.55 0l-.5-.2c-.15-.06-.15-.15 0-.21l.04-.01c.15-.06.39-.06.54 0l.51.2c.14.06.14.16-.01.21zM71.92 68.91c.13.03.31.17.4.3l.17.27c.09.13.05.21-.08.18a.726.726 0 0 1-.39-.31l-.18-.27c-.1-.12-.06-.21.08-.17zM69.71 64.01l-.02.02c-.11.12-.33.21-.49.22l-.55.03c-.16.01-.19-.07-.08-.19l.02-.03c.11-.11.34-.21.5-.22l.55-.02c.15-.01.19.07.07.19zM66.06 75.44a.759.759 0 0 1-.47-.11l-.23-.14c-.14-.08-.15-.17-.02-.2.13-.02.34.03.48.11l.22.14c.14.08.15.17.02.2zM77.49 7.55c-.08.08-.28.15-.44.15h-.15c-.16 0-.23-.06-.15-.14.08-.07.27-.14.44-.14h.15c.16 0 .23.06.15.13zM56.32 77.04l.05.07c.09.14.29.28.44.32l.62.16c.16.04.21-.04.13-.17l-.05-.07a.831.831 0 0 0-.44-.32l-.61-.15c-.17-.05-.22.03-.14.16zM74.95 71.61l.01.03c.05.16.19.36.33.44l.47.3c.13.09.21.03.17-.13l-.01-.03a.831.831 0 0 0-.32-.44l-.46-.29c-.16-.09-.24-.03-.19.12zM54.4 72.25l-.05.06a.83.83 0 0 0-.15.52l.06.63c.01.16.1.19.2.06l.05-.06c.1-.13.16-.36.15-.52l-.05-.63c-.02-.16-.12-.19-.21-.06zM68.58 67.06c-.07-.07-.26-.12-.42-.12h-.08c-.16 0-.23.05-.16.12.07.07.26.13.43.13h.08c.15 0 .23-.06.15-.13zM66.16 54.84l-.26.07c-.15.04-.35.18-.44.32l-.53.82c-.09.14-.03.21.12.17l.26-.06c.15-.04.35-.18.44-.32l.52-.82c.11-.14.05-.22-.11-.18zM77.14 64.35c-.13.04-.3.19-.38.32l-.16.27c-.08.14-.04.22.09.18.13-.04.3-.19.38-.32l.15-.27c.08-.14.04-.22-.08-.18zM64.85 32.84c.14.01.34-.07.47-.18l.24-.2c.13-.1.11-.19-.02-.2-.14-.01-.34.07-.47.18l-.24.2c-.13.1-.12.19.02.2zM34.47 46.84c.05-.09.22-.19.37-.25l.07-.02c.16-.05.24-.02.19.07-.05.09-.21.2-.37.25l-.07.02c-.15.04-.24.01-.19-.07zM25.33 59.79l-.07-.21c-.05-.16-.03-.4.04-.55l.38-.8c.07-.14.16-.14.21.01l.06.21c.05.15.03.39-.04.54l-.38.81c-.06.16-.16.15-.2-.01zM36.68 73.82c.14-.03.38 0 .51.07l.35.19c.14.08.14.17 0 .21-.14.04-.38 0-.52-.07l-.35-.19c-.14-.08-.14-.17.01-.21zM29.17 42.2c.01-.1.11-.27.23-.38l.05-.05c.11-.11.21-.12.2-.02-.01.1-.11.27-.23.38l-.05.05c-.12.1-.21.11-.2.02zM.7 22.14c0 .07-.08.19-.17.28-.08.08-.15.1-.15.03s.08-.19.16-.27c.09-.09.16-.1.16-.04zM1.34 20.2c.1-.08.21-.27.23-.43l.05-.26c.03-.16-.03-.23-.13-.15-.1.08-.21.27-.24.43l-.05.26c-.02.16.04.22.14.15zM2.39 17.12a.558.558 0 0 1-.13-.37l.01-.33c0-.12.07-.14.14-.06.08.09.14.25.13.37l-.01.33c0 .12-.06.15-.14.06z" class="st0"/><path d="M1.14 20.21c.01-.1.11-.27.23-.38l.05-.05c.11-.11.21-.12.2-.02-.01.1-.11.27-.23.38l-.05.05c-.12.11-.21.12-.2.02zM29.7 69.68c.08-.11.28-.22.44-.24l.31-.05c.16-.02.22.04.13.15-.08.11-.28.21-.44.24l-.31.06c-.16.02-.22-.05-.13-.16zM11.7 72.45l.06-.03a.84.84 0 0 1 .54-.08l.59.14c.15.04.17.13.03.21l-.06.03c-.14.07-.39.11-.54.07l-.58-.14c-.17-.03-.18-.12-.04-.2zM41 76.93c.06.05.21.08.33.07.13-.01.19-.05.13-.09-.06-.05-.2-.08-.33-.07-.13.01-.19.04-.13.09zM68.72 73.79c-.07 0-.18.08-.27.17-.08.09-.1.16-.03.15.07 0 .19-.08.27-.17.09-.09.1-.15.03-.15zM52.63 53.84c.11-.03.28-.16.37-.29l.1-.15c.09-.14.07-.22-.04-.19-.11.03-.28.16-.37.29l-.1.15c-.1.13-.08.21.04.19zM72.99 52.06c.06.08.23.18.39.21l.09.02c.16.03.24-.01.18-.09s-.24-.18-.39-.21l-.09-.02c-.16-.03-.24.01-.18.09zM66.19 49.01a.836.836 0 0 0-.52-.02l-.4.14c-.15.05-.16.14-.03.2.14.06.37.07.53.02l.39-.13c.16-.04.17-.14.03-.21zM60.56 34.93l.21.11c.15.08.39.1.54.05l.89-.26c.16-.05.16-.14.02-.21l-.22-.11a.83.83 0 0 0-.54-.05l-.89.26c-.15.04-.16.13-.01.21zM56.61 67.57l-.01.35c-.01.16-.11.39-.22.5l-.79.79c-.11.11-.2.08-.19-.09l.01-.35c.01-.16.1-.38.22-.5l.79-.79c.11-.12.2-.07.19.09zM45.92 46.27c-.03.13-.15.32-.29.41l-.26.19c-.13.09-.22.06-.19-.07a.78.78 0 0 1 .29-.41l.26-.18c.14-.12.22-.08.19.06zM24.1 55.71l.06.09c.09.13.14.37.11.53l-.12.67c-.03.16-.12.18-.21.04l-.06-.09a.842.842 0 0 1-.11-.54l.11-.66c.03-.16.13-.18.22-.04zM33.26 60.64c.05.03.11.13.14.24.03.1.02.16-.03.13s-.11-.14-.15-.24c-.03-.1-.02-.16.04-.13z" class="st0"/><path d="m40.99 76.47.01.01c.09.13.15.37.12.53l-.08.51c-.02.16-.11.18-.21.05l-.01-.01a.82.82 0 0 1-.12-.53l.08-.5c.03-.17.12-.19.21-.06zM6.85 64.64c.09.07.29.13.45.13l.18-.01c.16 0 .22-.07.13-.14-.09-.08-.29-.14-.45-.13h-.18c-.16.01-.21.08-.13.15zM2.42 10.73c-.13.11-.39.22-.58.22H1.4c-.19.01-.25-.09-.12-.21.12-.12.39-.21.58-.21h.45c.18-.01.23.08.11.2zM.99 14.16c-.09-.11-.15-.34-.14-.5l.03-.36c.01-.16.1-.2.18-.09.09.11.15.34.14.5l-.03.37c-.02.16-.1.2-.18.08zM.48 6.14c.09.07.29.13.45.13l.18-.01c.16 0 .22-.07.13-.14-.09-.09-.28-.14-.44-.14H.62c-.17.01-.23.08-.14.16zM13.62 41.42c.07-.1.11-.31.09-.47l-.03-.23c-.01-.16-.09-.21-.16-.11-.07.1-.11.31-.09.47l.03.22c.02.18.09.23.16.12zM29.19 46.34l.01.01c.1.12.31.24.47.27l.49.07c.16.02.21-.06.1-.19a.805.805 0 0 0-.47-.27l-.49-.07c-.17-.02-.21.06-.11.18zM34.4 19.62c-.03-.13-.17-.31-.31-.4l-.27-.17c-.14-.09-.22-.05-.19.08s.18.31.31.4l.27.17c.14.09.22.05.19-.08zM35.31 23.17c.07.07.12.26.12.43v.08c0 .16-.05.23-.12.16-.07-.07-.12-.26-.12-.43v-.08c.01-.16.06-.24.12-.16zM30.36 23.15c0 .07-.08.19-.17.28-.08.08-.15.1-.15.03s.08-.19.16-.27c.09-.1.17-.11.16-.04zM31.01 21.2c.1-.08.21-.27.23-.43l.05-.26c.03-.16-.03-.23-.13-.15-.1.08-.21.27-.24.43l-.05.26c-.03.16.04.23.14.15zM32.06 18.12a.558.558 0 0 1-.13-.37l.01-.33c0-.12.07-.14.14-.06.08.09.14.25.13.37l-.01.33c0 .12-.06.15-.14.06zM36.11 25.85c.05-.09.22-.19.37-.25l.07-.02c.16-.05.24-.02.19.07-.05.09-.21.2-.37.25l-.07.02c-.15.05-.24.02-.19-.07z" class="st0"/><path d="M30.8 21.21c.01-.1.11-.27.23-.38l.05-.05c.11-.11.21-.12.2-.02-.01.1-.11.27-.23.38l-.05.05c-.12.11-.21.12-.2.02zM30.82 25.36l.01.01c.1.12.31.24.47.27l.49.07c.16.02.21-.06.1-.19a.805.805 0 0 0-.47-.27l-.49-.07c-.16-.03-.21.06-.11.18zM17.9 63.27l.28-.09c.15-.05.34-.21.42-.35l.49-.89c.08-.14.02-.22-.14-.17l-.28.09a.85.85 0 0 0-.42.35l-.49.9c-.07.14-.01.21.14.16zM7.42 49.37l-.15.21c-.09.13-.15.37-.13.53l.13.94c.02.16.11.18.2.05l.15-.21c.09-.13.15-.37.13-.53l-.13-.93c-.02-.17-.12-.19-.2-.06zM4.02 41.38v.06c-.02.16.06.39.16.52l.37.47c.1.13.19.1.2-.06l.01-.06a.887.887 0 0 0-.16-.52l-.37-.47c-.1-.13-.2-.1-.21.06zM15.54 61.57c.07-.11.11-.33.08-.49l-.05-.28c-.03-.16-.11-.2-.18-.09-.07.11-.11.33-.08.49l.05.29c.03.15.11.19.18.08zM14.34 58.83c.13.07.37.1.53.06l.43-.11c.15-.04.17-.14.04-.2a.871.871 0 0 0-.53-.06l-.43.11c-.16.03-.18.12-.04.2zM19.57 79.09c.05-.14.05-.39-.01-.54l-.16-.42c-.06-.15-.16-.15-.21 0-.06.15-.05.39.01.53l.17.41c.06.16.15.16.2.02zM2.14 74.93c-.05.12-.05.33 0 .49l.08.24c.05.16.13.19.18.07.05-.11.05-.33 0-.49L2.33 75c-.05-.16-.13-.18-.19-.07zM27.92 25.51c-.1-.03-.3 0-.44.07l-.1.05c-.15.07-.18.15-.08.18.1.03.3 0 .44-.06l.1-.05c.15-.07.18-.15.08-.19zM63.48 27.67c.1 0 .27.1.39.21l.04.04c.12.12.14.2.04.2s-.27-.09-.39-.21l-.05-.04c-.11-.11-.13-.2-.03-.2zM47.53 59.55v-.31c0-.16.09-.39.21-.5l.71-.76c.11-.11.2-.07.2.08v.31c0 .16-.09.39-.21.5l-.71.76c-.12.12-.21.08-.2-.08zM57.72 47.99c.09-.03.28 0 .43.06l.04.02c.15.06.19.14.1.17s-.28 0-.43-.06l-.04-.02c-.14-.06-.19-.14-.1-.17zM41.93 1.1l-.08-.01a.329.329 0 0 0-.22.05l-.3.19c-.06.03-.05.07.02.08l.08.01c.07.01.16-.01.22-.05l.29-.19c.07-.03.05-.07-.01-.08zM39.52 2.58l.21-.07c.15-.05.4-.03.55.03l.8.37c.15.07.14.16-.01.21l-.22.08c-.15.05-.4.03-.54-.03l-.8-.37c-.15-.07-.14-.17.01-.22zM41.84.67l.17.11c.13.08.37.13.53.1l.84-.16c.16-.03.17-.12.04-.21L43.25.4a.82.82 0 0 0-.53-.1l-.84.16c-.16.03-.17.12-.04.21z" class="st0"/><path d="M40.25 3.62c-.02-.15.06-.43.18-.62l.1-.15c.13-.19.25-.22.28-.07.03.14-.06.43-.18.62l-.1.15c-.13.19-.25.22-.28.07zM42.81 1.81l.07-.03c.08-.03.2-.03.28 0l.35.13c.08.03.08.07 0 .1l-.07.03c-.07.03-.2.03-.27 0l-.35-.13c-.08-.02-.08-.07-.01-.1zM40.9 1.87c.09-.03.28 0 .43.06l.04.02c.15.06.19.14.1.17s-.28 0-.43-.06L41 2.05c-.15-.07-.19-.14-.1-.18zM61.18 33.48l-.16.2c-.09.13-.16.37-.15.53l.09.95c.01.16.11.19.21.06l.15-.21c.1-.13.16-.36.15-.52l-.09-.95c-.01-.16-.09-.19-.2-.06zM77.1 15.99l.02-.04c.08-.14.14-.38.11-.54l-.09-.57c-.02-.16-.12-.18-.21-.04l-.03.04c-.09.13-.14.37-.11.53l.09.57c.03.17.13.19.22.05zM45.98 4.24c.13.05.36.04.5-.02l.31-.13c.15-.06.16-.15.03-.2-.13-.05-.35-.03-.5.02l-.3.13c-.16.06-.17.16-.04.2zM55.28 35.41l.05.01c.16.03.39-.01.54-.09l.49-.29c.14-.08.12-.18-.03-.21l-.05-.01c-.16-.03-.4.01-.54.09l-.48.29c-.16.08-.14.18.02.21zM59.09 16.41c.11-.08.34-.13.5-.11l.36.05c.16.02.19.1.08.19-.12.08-.35.13-.51.11l-.35-.05c-.16-.03-.19-.11-.08-.19zM42.45 40.71l-.01-.22c-.01-.16.06-.4.16-.52l.56-.69c.1-.13.19-.09.2.06l.01.22c.01.17-.06.4-.16.52l-.56.69c-.1.14-.19.1-.2-.06zM43.5 25.86l.12.13c.11.12.2.35.19.51v.8c0 .17-.09.2-.2.08l-.12-.13a.877.877 0 0 1-.2-.51l.01-.8c0-.17.09-.2.2-.08zM9.46 42.42l.01-.03c.07-.15.24-.32.39-.38l.5-.21c.15-.06.21.01.15.15l-.01.03c-.07.15-.24.32-.39.38l-.5.21c-.16.07-.22 0-.15-.15zM42.64 16.16l-.06.04c-.13.1-.26.31-.29.46l-.11.61c-.03.16.05.21.17.11l.06-.04c.13-.1.25-.31.29-.46l.11-.61c.03-.16-.05-.2-.17-.11zM54.29 8.44l.05.02c.15.05.4.03.54-.04l.53-.25c.15-.07.14-.17-.01-.21l-.05-.01a.9.9 0 0 0-.54.03l-.53.25c-.15.07-.14.16.01.21zM57.02 11.63l.1-.16c.09-.14.14-.37.11-.54l-.13-.83c-.03-.15-.12-.18-.21-.04l-.1.16c-.09.13-.14.38-.11.54l.14.83c.02.16.12.18.2.04zM60.37 41.17l.01-.02c.08-.14.1-.39.06-.54l-.14-.51c-.04-.15-.14-.17-.21-.02l-.01.02a.84.84 0 0 0-.06.54l.14.51c.04.15.14.17.21.02zM21.81 41.78a.788.788 0 0 1-.28-.35l-.04-.1c-.06-.15-.03-.24.06-.19.09.04.22.2.28.35l.04.1c.06.15.03.24-.06.19zM60.46 3.17a.58.58 0 0 1 .29.01c.11.03.15.08.1.11a.58.58 0 0 1-.29-.01c-.11-.04-.16-.09-.1-.11zM25.03 12.86c.01.13-.07.33-.18.45l-.15.19c-.1.12-.19.12-.2 0 0-.13.08-.33.18-.45l.15-.19c.1-.13.19-.13.2 0zM57.64 38.31a.7.7 0 0 1-.41.21l-.15.03c-.16.03-.23-.02-.17-.11.07-.09.25-.18.41-.21l.16-.03c.15-.03.22.02.16.11zM27.32 32.55c-.11.11-.21.34-.22.5l-.02.47c-.01.16.07.2.18.09.11-.11.21-.33.22-.5l.02-.46c.02-.17-.07-.21-.18-.1zM14.38 13.21h-.07a.842.842 0 0 0-.52.18l-.46.4c-.12.1-.09.19.07.2l.07.01c.16 0 .39-.07.52-.18l.46-.4c.12-.11.09-.2-.07-.21zM9.78 6.46h.02c.16 0 .39-.1.5-.21l.38-.36c.12-.11.08-.2-.08-.2h-.03c-.16 0-.38.09-.5.2l-.37.37c-.12.11-.09.2.08.2zM71.6 6c-.1.11-.16.34-.15.5l.03.41c.01.16.1.2.19.07.09-.12.16-.34.15-.5l-.03-.41c-.01-.15-.09-.19-.19-.07zM15.85 22.59c.11.02.31-.03.45-.12l.15-.09c.14-.09.16-.18.04-.2-.11-.02-.31.03-.45.12l-.15.09c-.14.09-.15.18-.04.2zM16.86 1.69l-.28.02a.887.887 0 0 1-.52-.16l-.78-.62c-.13-.1-.1-.19.06-.2l.28-.02c.16-.01.4.06.52.16l.77.62c.14.1.11.18-.05.2zM12.68 4.53c.06.15.07.39.02.54l-.15.43c-.06.15-.15.16-.21.02a.903.903 0 0 1-.02-.54l.15-.42c.06-.16.15-.17.21-.03zM18.5 9c-.01-.12-.11-.31-.23-.42l-.15-.14c-.12-.11-.21-.1-.2.01.01.12.11.3.23.41l.15.14c.13.12.21.11.2 0zM68.21 17.66c-.09-.02-.28.04-.42.13l-.03.02c-.13.09-.17.18-.08.19.1.01.28-.04.41-.13l.03-.02c.15-.09.18-.18.09-.19zM70.92 16.48c.14.08.38.1.53.06l.44-.12c.16-.04.17-.14.03-.21a.81.81 0 0 0-.53-.06l-.44.13c-.15.04-.17.13-.03.2zM61.95 15.11c.12-.03.33 0 .48.08l.2.11c.14.08.16.16.04.19s-.33 0-.47-.08l-.2-.11c-.16-.07-.17-.16-.05-.19zM41.35 8.68c.12.04.27.19.35.33l.11.2c.08.15.04.23-.07.19-.11-.04-.27-.19-.35-.33l-.1-.21c-.08-.13-.05-.22.06-.18zM60.97 20.82l.13.18c.1.13.16.36.15.53l-.08.89c-.02.16-.11.19-.21.06l-.13-.17a.841.841 0 0 1-.15-.53l.08-.89c.02-.17.11-.19.21-.07zM39.4 17.77c-.16 0-.39-.09-.51-.2l-.35-.33c-.12-.11-.08-.2.08-.19.16 0 .39.09.51.2l.35.33c.11.11.08.2-.08.19zM47.72 35.2l-.05-.07a.88.88 0 0 0-.42-.26l-.6-.11c-.14-.03-.19.04-.1.16l.06.08c.09.11.28.23.42.25l.59.11c.14.01.18-.05.1-.16zM6.56 11.63l-.03.15c-.02.1.01.25.07.34l.32.5c.06.09.12.08.14-.02l.03-.15c.02-.1-.01-.26-.07-.35l-.32-.5c-.06-.09-.12-.08-.14.03zM4.66 32.55l.03-.06c.12-.2.18-.55.12-.78l-.17-.81c-.05-.22-.19-.24-.31-.05l-.03.07c-.13.2-.18.55-.13.78l.17.8c.05.23.19.25.32.05zM50.6 23.55l-.07.06c-.11.09-.32.16-.47.15l-.61-.02c-.15-.01-.17-.08-.06-.18l.07-.06c.11-.09.32-.17.47-.15l.61.03c.14 0 .17.07.06.17zM37.39 24.32c.07-.07.23-.14.37-.16l.24-.02c.13-.01.18.05.1.13-.08.07-.24.14-.37.15l-.24.02c-.13.01-.17-.04-.1-.12zM55.46 40.57c.04.03.08.13.09.21v.03c.01.08-.02.13-.06.09-.04-.03-.08-.13-.09-.21v-.03c0-.09.02-.12.06-.09zM42.48 6.56h.07c.17-.02.43.05.56.15l.52.38c.14.1.11.2-.06.22h-.07a.96.96 0 0 1-.57-.15l-.51-.38c-.14-.11-.11-.2.06-.22zM40.22 37.5l-.09.1a.5.5 0 0 1-.28.14l-.53.06c-.09.01-.12-.04-.06-.11l.1-.11a.47.47 0 0 1 .28-.14l.54-.05c.08-.01.1.04.04.11zM39.57 34.69l-.03-.04a.684.684 0 0 1-.09-.42l.08-.48c.02-.13.1-.14.17-.03l.03.05c.07.11.11.3.09.42l-.08.48c-.02.12-.1.14-.17.02zM40.89 33.82l-.14-.12a.31.31 0 0 0-.17-.05l-.5.02c-.05 0-.06.03-.02.07l.14.12c.04.03.12.06.16.06l.5-.02c.07-.01.08-.04.03-.08zM60.37.98c-.04.13-.19.3-.33.38l-.27.16c-.14.08-.22.04-.18-.09.04-.13.19-.3.33-.38l.27-.16c.14-.07.22-.04.18.09zM63.73 1.46l-.03-.04a.684.684 0 0 1-.09-.42l.08-.48c.02-.13.1-.14.17-.03l.03.05c.07.11.11.3.09.42l-.08.46c-.03.13-.1.15-.17.04zM65.05.59l-.14-.12a.31.31 0 0 0-.17-.05l-.5.02c-.05 0-.06.03-.02.07l.14.12c.04.03.12.06.16.06l.5-.02c.06-.02.07-.05.03-.08zM10.6 3.16l-.08-.02a.704.704 0 0 0-.47.09l-.51.3c-.12.07-.1.15.04.18l.08.02c.14.03.35-.01.47-.08l.5-.3c.12-.08.11-.16-.03-.19zM13.54 30.69a.57.57 0 0 0-.32-.04l-.2.03c-.1.02-.12.07-.05.12.07.05.22.07.32.05l.21-.03c.1-.03.12-.08.04-.13zM38.25 18.26l.08.13c.09.14.14.39.11.55l-.14.76c-.03.17-.13.18-.22.04l-.08-.12a.899.899 0 0 1-.11-.55l.15-.76c.03-.17.13-.19.21-.05zM31.07 13.44c-.06.16-.29.39-.52.5l-.18.09c-.23.12-.37.09-.32-.07.06-.16.3-.38.53-.51l.17-.09c.24-.12.38-.08.32.08zM17.52 9.7l.02-.01c.09-.05.26-.07.36-.03l.36.1c.1.02.11.09.01.13l-.03.01c-.09.05-.26.06-.36.04l-.36-.1c-.09-.04-.1-.1 0-.14zM36.16 36.12l.01-.03a.71.71 0 0 1 .23-.19l.31-.1c.08-.03.11.01.07.09l-.02.03c-.04.08-.14.16-.22.19l-.31.11c-.08.01-.11-.02-.07-.1zM48.58 26.06c.05.06.07.19.06.29l-.02.13c-.01.09-.06.12-.1.06-.05-.06-.07-.18-.06-.28l.02-.14c0-.09.05-.12.1-.06zM53.88 37.4c-.07.09-.13.29-.12.46l.01.12c0 .17.07.25.14.16.07-.08.13-.29.12-.46v-.11c-.01-.18-.08-.25-.15-.17zM30.74 50.6c.14-.04.32-.18.4-.32l.19-.31c.08-.14.04-.22-.09-.18-.14.04-.32.18-.4.32l-.19.31c-.09.13-.04.22.09.18zM29.23 51.48c.08.05.28.07.43.04l.03-.01c.16-.03.23-.09.15-.14-.08-.05-.28-.07-.44-.04l-.03.01c-.16.03-.22.09-.14.14zM26.21 45.91c-.02.09.02.27.1.41.08.14.16.18.18.1.02-.08-.02-.27-.1-.41-.08-.14-.16-.18-.18-.1zM28.91 49.3l-.05-.12a.582.582 0 0 1-.02-.39l.19-.56c.04-.11.11-.11.15 0l.06.13c.04.1.05.28.02.39l-.19.56c-.05.09-.12.1-.16-.01zM26.76 52.14l-.24-.17a.597.597 0 0 1-.24-.36l-.19-.9c-.02-.13.04-.17.14-.1l.24.17c.1.07.21.24.24.36l.19.9c.03.13-.03.18-.14.1zM28.23 46.98l.05.01c.16.03.39-.01.54-.09l.49-.29c.14-.08.12-.18-.03-.21l-.05-.01c-.16-.03-.4.01-.54.09l-.48.29c-.16.08-.14.17.02.21zM30.59 49.87a.7.7 0 0 1-.41.21l-.15.03c-.16.03-.23-.02-.17-.11.07-.09.25-.18.41-.21l.16-.03c.15-.03.22.02.16.11zM28.41 52.13c.04.03.08.13.09.21v.03c.01.08-.02.13-.06.09-.04-.03-.08-.13-.09-.21v-.03c0-.08.02-.12.06-.09zM26.83 48.96c-.07.09-.13.29-.12.46l.01.12c0 .17.07.25.14.16.07-.08.13-.29.12-.46v-.11c-.01-.18-.08-.25-.15-.17zM76.98 40.17c.14-.04.32-.18.4-.32l.19-.31c.08-.14.04-.22-.09-.18-.14.04-.32.18-.4.32l-.19.31c-.09.14-.04.22.09.18zM75.46 41.06c.08.05.28.07.43.04l.04-.01c.16-.03.23-.09.15-.14-.08-.05-.28-.07-.44-.04l-.03.01c-.16.02-.23.08-.15.14zM72.45 35.48c-.02.09.02.27.1.41.08.14.16.18.18.1.02-.08-.02-.27-.1-.41-.08-.14-.16-.18-.18-.1zM75.15 38.87l-.05-.12a.582.582 0 0 1-.02-.39l.19-.56c.04-.11.11-.11.15 0l.06.13c.04.1.05.28.02.39l-.19.56c-.05.1-.12.1-.16-.01zM76.85 42.85a.588.588 0 0 1-.22-.27l-.08-.24c-.03-.1 0-.14.09-.1s.18.17.22.27l.08.24c.03.1 0 .14-.09.1zM74.63 44.26l-.09.02c-.07.02-.19.01-.26-.02l-.38-.18c-.07-.04-.07-.09.01-.1l.1-.03c.08-.02.19-.01.26.02l.38.18c.07.04.06.09-.02.11zM72.34 43.72c.11-.05.33-.05.48-.01l.23.07c.15.05.18.14.07.19-.11.05-.33.06-.48.01l-.23-.07c-.15-.05-.18-.13-.07-.19zM76.97 43.26l.18-.09c.14-.07.39-.09.54-.04l.83.25c.15.05.16.14.02.21l-.19.09c-.15.07-.39.09-.54.04l-.83-.25c-.15-.04-.15-.14-.01-.21zM73 41.72l-.24-.17a.597.597 0 0 1-.24-.36l-.19-.9c-.02-.13.04-.17.14-.1l.24.17c.1.07.21.24.24.36l.19.9c.03.13-.04.17-.14.1zM74.46 36.55l.05.01c.16.03.39-.01.54-.09l.49-.29c.14-.08.12-.18-.03-.21l-.05-.01c-.16-.03-.4.01-.54.09l-.48.29c-.15.08-.14.17.02.21zM79.55 42.31l.01-.02c.08-.14.1-.39.06-.54l-.14-.51c-.04-.15-.14-.17-.21-.02l-.01.02a.84.84 0 0 0-.06.54l.14.51c.04.15.14.16.21.02zM74.65 41.7c.04.03.08.13.09.21v.03c.01.08-.02.13-.06.09-.04-.03-.08-.13-.09-.21v-.03c0-.08.02-.12.06-.09zM73.07 38.54c-.07.09-.13.29-.12.46l.01.12c0 .17.07.25.14.16.07-.08.13-.29.12-.46v-.11c-.02-.18-.08-.26-.15-.17zM65.53 3.39l.18-.07c.09-.04.2-.14.24-.24l.27-.58c.05-.09 0-.13-.09-.1l-.18.08c-.09.04-.2.14-.24.23l-.28.59c-.04.09.01.13.1.09zM58.38 33.71l.05-.01c.11-.02.24-.1.31-.18l.25-.32c.07-.08.03-.13-.07-.12l-.05.01c-.1.02-.24.11-.31.19l-.26.32c-.06.08-.03.13.08.11zM59.28 29.97c.1.1.18.32.18.49v.34c0 .17-.08.22-.18.11a.875.875 0 0 1-.17-.49v-.33c-.01-.18.08-.23.17-.12zM53.19 22.04l.02.03c.05.08.09.21.07.29l-.04.33c-.01.09-.06.1-.11.03l-.03-.02a.483.483 0 0 1-.07-.29l.04-.34c.01-.09.07-.1.12-.03zM1.76 58.16c.09-.09.3-.17.46-.18l.3-.01c.16 0 .21.06.12.16-.09.09-.3.17-.46.18l-.3.01c-.17 0-.22-.07-.12-.16zM.89 59.4c.03.01.1-.01.16-.04s.07-.06.04-.07c-.03-.01-.1.01-.16.04-.05.04-.07.07-.04.07zM4.71 54.98l-.25-.14a.84.84 0 0 0-.54-.08l-.97.21c-.15.03-.17.13-.03.21l.24.14c.14.08.39.12.54.08l.97-.22c.16-.03.18-.12.04-.2zM1.12 55.93l-.1.15c-.04.06-.13.12-.2.13l-.53.12c-.07.01-.09-.02-.05-.08l.1-.14c.04-.06.13-.12.2-.13l.53-.12c.07-.03.09.01.05.07zM1.43 61.41l.02.01c.08.03.16.1.21.17l.14.24c.04.07.01.11-.07.08l-.02-.01a.443.443 0 0 1-.21-.17l-.14-.24c-.03-.07 0-.11.07-.08z" class="st0"/><path d="m1.07 61.27.03.1c.02.06.08.14.13.18l.35.22c.06.03.09.01.07-.05l-.04-.12c-.02-.06-.07-.14-.13-.17l-.34-.21c-.05-.04-.08-.02-.07.05zM77.65 5.77l.46-.01c.12 0 .29.05.38.14l.9.78c.09.07.07.14-.05.15l-.46.01c-.12 0-.29-.06-.38-.14l-.91-.78c-.09-.09-.06-.15.06-.15zM43.92 29.35l-.05-.01c-.07-.02-.17 0-.23.03l-.26.15c-.06.04-.05.08.01.09l.05.01c.07.02.18 0 .24-.03l.26-.15c.06-.03.05-.08-.02-.09zM62.9 31.99c-.15.05-.33.21-.42.36l-.2.38c-.08.14-.02.22.13.17.15-.05.34-.21.42-.36l.21-.37c.07-.15.02-.23-.14-.18zM28.11 30.07c.05-.07.13-.13.21-.15l.23-.06c.07-.01.09.02.05.08v.01a.39.39 0 0 1-.2.13l-.23.05c-.08.04-.11.01-.06-.06zM43.82 35.3l-.07-.16a.556.556 0 0 1-.01-.36l.23-.61c.04-.1.1-.1.14 0l.07.17c.04.1.04.26 0 .36l-.23.61c-.03.09-.09.09-.13-.01zM18.45 60.42l.04.06c.09.14.29.29.45.33l.61.16c.16.05.22-.03.13-.17l-.04-.06c-.09-.14-.29-.29-.45-.32l-.61-.17c-.17-.04-.23.03-.13.17zM37.3 72.73c-.07-.04-.16-.18-.2-.31l-.01-.05c-.04-.13-.01-.2.06-.16.07.05.16.19.19.32l.02.05c.03.12 0 .19-.06.15zM47.76 70.35l-.17.12c-.08.06-.23.1-.34.09l-.7-.07c-.1-.01-.11-.07-.03-.13l.17-.13c.08-.06.23-.1.34-.09l.7.07c.1.02.11.08.03.14zM19.2 71.98a.73.73 0 0 1-.43-.11l-.32-.23c-.1-.07-.08-.15.05-.16h.01c.13-.02.31.03.42.11l.32.24c.1.07.08.14-.05.15zM14.95 48.22c.02-.12.11-.26.22-.32l.27-.19c.1-.07.16-.03.13.08a.6.6 0 0 1-.22.32l-.27.19c-.1.06-.16.03-.13-.08zM37.2 29.06c-.05.04-.15.06-.24.06h-.07c-.09 0-.12-.04-.08-.07.05-.04.15-.07.24-.07h.07c.09.01.13.04.08.08zM5.85 57.71l-.04.07c-.05.11-.06.27-.02.38l.15.45c.03.11.1.11.15 0l.04-.07c.05-.1.06-.27.02-.38L6 57.71c-.04-.1-.11-.1-.15 0zM48.9 75.17c.04.07.05.2.03.29l-.05.21c-.02.09-.08.1-.12.02a.47.47 0 0 1-.03-.29l.06-.21c.02-.08.07-.1.11-.02zM38.32 42.19c-.1.05-.29.05-.42.01l-.26-.08c-.13-.03-.15-.11-.04-.16.1-.05.29-.06.42-.01l.25.08c.13.05.15.12.05.16zM15.75 52.95c-.05-.02-.12-.12-.16-.22-.04-.09-.03-.15.02-.13.05.02.13.12.16.21.04.1.03.16-.02.14zM35.44 27.56l.12-.02c.13-.02.3-.11.38-.21l.38-.45c.08-.1.05-.16-.08-.15l-.12.01a.72.72 0 0 0-.38.21l-.38.45c-.07.11-.04.17.08.16zM1.4 33.42l.04.05c.08.1.25.19.38.22l.49.08c.13.02.17-.04.09-.14l-.03-.05a.7.7 0 0 0-.38-.22l-.5-.08c-.13-.02-.17.04-.09.14zM2.56 35.26l-.03-.07a.866.866 0 0 0-.38-.4l-.56-.26c-.15-.07-.22 0-.15.15l.03.07c.06.15.23.33.37.4l.57.27c.14.06.21-.01.15-.16zM.96 30.48c.05-.09.22-.19.37-.25l.07-.02c.16-.05.24-.02.19.07-.05.09-.21.2-.37.25l-.07.02c-.15.04-.23.02-.19-.07zM2.25 28.94c.07-.07.23-.14.37-.16l.24-.02c.13-.01.18.05.1.13-.08.07-.24.14-.37.15l-.24.02c-.14.02-.18-.04-.1-.12z" class="st0"/><path d="M2.06 33.69c-.05.04-.15.06-.24.06h-.07c-.09 0-.12-.04-.08-.07.05-.04.15-.07.24-.07h.07c.08 0 .12.04.08.08zM.3 32.18l.12-.02c.13-.02.3-.11.38-.21l.38-.45c.08-.1.05-.16-.08-.15l-.12.01a.72.72 0 0 0-.38.21l-.38.45c-.08.11-.05.17.08.16zM23.43 58.65c.14.02.37-.05.51-.15l.23-.17c.15-.1.15-.19.01-.21a.826.826 0 0 0-.51.14l-.24.17c-.13.11-.14.2 0 .22zM55.26 68.04l.07.08c.08.09.25.17.37.18l.55.06c.12.01.15-.06.07-.15l-.07-.08a.676.676 0 0 0-.38-.18l-.55-.05c-.11-.01-.14.05-.06.14zM52.88 47.16c.07.24.29.53.51.65l.64.39c.21.12.33.04.26-.2-.07-.23-.3-.53-.51-.66l-.63-.38c-.22-.12-.34-.03-.27.2zM53.13 63.95c-.03-.14-.2-.35-.38-.47l-.16-.1c-.18-.12-.29-.1-.26.03.03.14.21.36.38.47l.16.1c.17.12.29.11.26-.03zM51.66 56.55l.13.12c.15.12.42.22.61.21l.9-.02c.2-.01.23-.11.09-.24l-.14-.11c-.14-.13-.42-.22-.61-.22l-.91.02c-.19.01-.22.11-.07.24zM28.93 75.62l.06.03c.08.03.22.04.3.02l.37-.11c.09-.02.09-.07.01-.11l-.06-.03a.509.509 0 0 0-.3-.02l-.38.11c-.08.03-.08.07 0 .11zM64.58 62.98l.03.07c.03.06.03.17.01.23l-.12.34c-.03.06-.06.06-.09 0l-.03-.08a.363.363 0 0 1-.01-.23l.12-.34c.02-.05.06-.05.09.01zM64.6 5.95c.04-.11.18-.24.32-.3l.18-.09c.14-.06.21-.03.17.07-.04.1-.18.24-.33.31l-.17.08c-.14.06-.22.03-.17-.07zM61.3 4.64c-.06.09-.22.2-.36.24l-.24.06c-.14.03-.2-.01-.14-.11.06-.09.22-.2.36-.24l.24-.06c.14-.04.2.01.14.11zM66.98 4.73a.807.807 0 0 1-.28-.38l-.07-.2c-.05-.15 0-.23.1-.17s.23.23.28.39l.06.2c.06.15.02.22-.09.16zM61.06 8.81a.806.806 0 0 1-.47-.16l-.23-.17c-.13-.1-.13-.19.01-.2.13-.01.34.06.47.15l.23.17c.12.11.12.2-.01.21zM65.99 8.29c-.04.08-.19.18-.34.24-.15.06-.23.04-.2-.04.04-.07.19-.18.34-.24.15-.05.24-.04.2.04zM61.5 5.38c.08-.08.31-.14.5-.15.2-.01.3.05.23.12-.08.08-.31.15-.51.15-.2.01-.29-.04-.22-.12zM67.92 7.95l.03.07c.03.06.03.17.01.23l-.12.35c-.03.06-.06.06-.09 0l-.03-.08a.363.363 0 0 1-.01-.23l.12-.34c.02-.06.06-.06.09 0zM76.25 31.91c.04-.11.18-.24.32-.3l.18-.09c.14-.06.21-.03.17.07-.04.1-.18.24-.33.31l-.17.08c-.14.06-.22.03-.17-.07zM72.95 30.6c-.06.09-.22.2-.36.24l-.23.07c-.14.03-.2-.01-.14-.11.06-.09.22-.2.36-.24l.24-.06c.13-.05.19.01.13.1zM78.63 30.7a.807.807 0 0 1-.28-.38l-.07-.2c-.05-.15 0-.23.1-.17s.23.23.28.39l.06.2c.06.14.02.22-.09.16zM72.71 34.77a.806.806 0 0 1-.47-.16l-.23-.17c-.13-.1-.13-.19.01-.2.13-.01.34.06.47.15l.23.17c.12.11.12.2-.01.21zM77.64 34.25c-.04.08-.19.18-.34.24-.15.06-.23.04-.2-.04.04-.07.19-.18.34-.24.15-.05.24-.03.2.04zM73.15 31.34c.08-.08.31-.14.5-.15.2-.01.3.05.23.12-.08.08-.31.15-.51.15-.2.01-.29-.04-.22-.12zM79.57 33.91l.03.07c.03.06.03.17.01.23l-.12.34c-.03.06-.06.06-.09 0l-.03-.08a.363.363 0 0 1-.01-.23l.12-.34c.02-.05.06-.05.09.01zM12.54 44.96l-.04.03a.85.85 0 0 1-.54.1l-.56-.11c-.16-.03-.18-.12-.04-.21l.05-.03c.14-.08.37-.13.53-.1l.57.11c.15.03.17.12.03.21zM10.83 48.04c.04-.11.18-.24.32-.3l.18-.09c.14-.06.21-.03.17.07-.04.1-.18.24-.33.31l-.17.08c-.14.06-.21.04-.17-.07zM13.22 46.83a.807.807 0 0 1-.28-.38l-.07-.2c-.05-.15 0-.23.1-.17s.23.23.28.39l.06.2c.05.14.01.22-.09.16zM12.23 50.39c-.04.08-.19.18-.34.24-.15.06-.23.04-.2-.04.04-.07.19-.18.34-.24.15-.05.24-.04.2.04zM14.15 50.05l.03.07c.03.06.03.17.01.23l-.12.34c-.03.06-.06.06-.09 0l-.03-.08a.363.363 0 0 1-.01-.23l.12-.34c.02-.05.07-.05.09.01zM26.17 62.65l-.04.03a.85.85 0 0 1-.54.1l-.56-.11c-.16-.03-.18-.12-.04-.21l.05-.03c.14-.08.37-.13.53-.1l.57.11c.15.04.17.13.03.21zM24.46 65.74c.04-.11.18-.24.32-.3l.18-.09c.14-.06.21-.03.17.07-.04.1-.18.24-.33.31l-.17.08c-.13.06-.21.03-.17-.07zM26.85 64.53a.807.807 0 0 1-.28-.38l-.07-.2c-.05-.15 0-.23.1-.17s.23.23.28.39l.06.2c.05.14.01.22-.09.16zM25.86 68.09c-.04.08-.19.18-.34.24-.15.06-.23.04-.2-.04.04-.07.19-.18.34-.24.15-.06.24-.04.2.04zM27.79 67.75l.03.07c.03.06.03.17.01.23l-.12.34c-.03.06-.06.06-.09 0l-.03-.08a.363.363 0 0 1-.01-.23l.12-.34c.02-.06.06-.06.09.01zM77.13 9.8l-.04.03a.85.85 0 0 1-.54.1l-.56-.11c-.17-.02-.19-.12-.05-.2l.05-.03c.14-.08.37-.13.53-.1l.57.11c.16.02.18.12.04.2zM75.42 12.89c.04-.11.18-.24.32-.3l.18-.09c.14-.06.21-.03.17.07-.04.1-.18.24-.33.31l-.17.08c-.14.06-.22.03-.17-.07zM77.8 11.68a.807.807 0 0 1-.28-.38l-.07-.2c-.05-.15 0-.23.1-.17s.23.23.28.39l.06.2c.06.14.01.22-.09.16zM76.81 15.24c-.04.08-.19.18-.34.24-.15.06-.23.04-.2-.04.04-.07.19-.18.34-.24.15-.06.24-.04.2.04zM78.74 14.89l.03.07c.03.06.03.17.01.23l-.12.34c-.03.06-.06.06-.09 0l-.03-.08a.363.363 0 0 1-.01-.23l.12-.34c.02-.05.06-.05.09.01zM11.28 60.21l-.04.03a.85.85 0 0 1-.54.1l-.56-.11c-.16-.03-.18-.12-.04-.21l.05-.03c.14-.08.37-.13.53-.1l.56.11c.16.03.18.12.04.21zM8.43 59.97l.01-.03a.94.94 0 0 0-.02-.55l-.22-.5c-.06-.15-.16-.14-.21.01l-.01.03c-.05.15-.04.4.02.55l.22.51c.06.14.16.14.21-.02zM7.78 67.94l.05.01c.16.03.39-.01.54-.09l.49-.29c.14-.08.12-.18-.03-.21l-.05-.01c-.16-.03-.4.01-.54.09l-.48.29c-.15.08-.14.17.02.21zM9.57 63.29c.04-.11.18-.24.32-.3l.18-.09c.14-.06.21-.03.17.07-.04.1-.18.24-.33.31l-.17.08c-.14.06-.22.04-.17-.07zM11.96 62.08a.807.807 0 0 1-.28-.38l-.07-.2c-.05-.15 0-.23.1-.17s.23.23.28.39l.06.2c.05.14.01.22-.09.16zM10.97 65.64c-.04.08-.19.18-.34.24-.15.06-.23.04-.2-.04.04-.07.19-.18.34-.24.14-.05.23-.04.2.04zM12.89 65.3l.03.07c.03.06.03.17.01.23l-.12.34c-.03.06-.06.06-.09 0l-.03-.08a.363.363 0 0 1-.01-.23l.12-.34c.02-.05.06-.05.09.01zM19.48 30.21l-.04.03a.85.85 0 0 1-.54.1l-.56-.11c-.16-.03-.18-.12-.04-.21l.05-.03c.14-.08.37-.13.53-.1l.56.11c.17.03.18.12.04.21zM16.64 29.97l.01-.03a.94.94 0 0 0-.02-.55l-.22-.5c-.06-.15-.16-.14-.21.01l-.01.03c-.05.15-.04.39.02.54l.22.51c.06.15.16.14.21-.01zM15.99 37.93l.05.01c.16.03.39-.01.54-.09l.49-.29c.14-.08.12-.18-.03-.21l-.05-.01c-.16-.03-.4.01-.54.09l-.48.29c-.15.08-.14.18.02.21zM17.78 33.29c.04-.11.18-.24.32-.3l.18-.09c.14-.06.21-.03.17.07-.04.1-.18.24-.33.31l-.17.08c-.14.06-.22.04-.17-.07zM20.16 32.08a.807.807 0 0 1-.28-.38l-.07-.2c-.05-.15 0-.23.1-.17s.23.23.28.39l.06.2c.05.14.01.22-.09.16zM19.17 35.64c-.04.08-.19.18-.34.24-.15.06-.23.04-.2-.04.04-.07.19-.18.34-.24.15-.06.24-.04.2.04zM78.86 21.75l-.04.03a.85.85 0 0 1-.54.1l-.56-.11c-.16-.03-.18-.12-.04-.21l.05-.03c.14-.08.37-.13.53-.1l.57.11c.15.03.17.13.03.21zM77.16 24.84c.04-.11.18-.24.32-.3l.18-.09c.14-.06.21-.03.17.07-.04.1-.18.24-.33.31l-.17.08c-.14.06-.22.03-.17-.07zM79.54 23.63a.807.807 0 0 1-.28-.38l-.07-.2c-.05-.15 0-.23.1-.17s.23.23.28.39l.06.2c.05.14.01.22-.09.16zM78.55 27.18c-.04.08-.19.18-.34.24-.15.06-.23.04-.2-.04.04-.07.19-.18.34-.24.15-.05.24-.03.2.04zM21.1 35.3l.03.07c.03.06.03.17.01.23l-.12.34c-.03.06-.06.06-.09 0l-.03-.08a.363.363 0 0 1-.01-.23l.11-.33c.03-.06.07-.06.1 0zM77.85 55.75l-.04.03a.85.85 0 0 1-.54.1l-.56-.11c-.16-.03-.18-.12-.04-.21l.05-.03c.14-.08.37-.13.53-.1l.57.11c.15.03.17.13.03.21zM75 55.51l.01-.03a.94.94 0 0 0-.02-.55l-.22-.5c-.06-.15-.16-.14-.21.01l-.01.03c-.05.15-.04.39.02.54l.22.51c.06.15.16.15.21-.01zM74.35 63.48l.05.01c.16.03.39-.01.54-.09l.49-.29c.14-.08.12-.18-.03-.21l-.05-.01c-.16-.03-.4.01-.54.09l-.48.29c-.15.08-.14.17.02.21zM76.14 58.84c.04-.11.18-.24.32-.3l.18-.09c.14-.06.21-.03.17.07-.04.1-.18.24-.33.31l-.17.08c-.14.06-.22.03-.17-.07zM78.52 57.62a.807.807 0 0 1-.28-.38l-.07-.2c-.05-.15 0-.23.1-.17s.23.23.28.39l.06.2c.06.14.01.22-.09.16zM77.98 1.18l-.04.03a.85.85 0 0 1-.54.1l-.56-.11c-.16-.02-.18-.12-.04-.2l.05-.03c.14-.08.37-.13.53-.1l.57.11c.16.03.17.12.03.2zM76.28 4.27c.04-.11.18-.24.32-.3l.18-.09c.14-.06.21-.03.17.07-.04.1-.18.24-.33.31l-.17.08c-.14.06-.22.03-.17-.07zM78.66 3.06a.807.807 0 0 1-.28-.38l-.07-.2c-.05-.15 0-.23.1-.17s.23.23.28.39l.06.2c.06.14.01.22-.09.16zM78.81 77.82l-.04.03a.85.85 0 0 1-.54.1l-.56-.11c-.16-.03-.18-.12-.04-.21l.05-.03c.14-.08.37-.13.53-.1l.57.11c.15.03.17.13.03.21zM79.49 79.7a.807.807 0 0 1-.28-.38l-.07-.2c-.05-.15 0-.23.1-.17s.23.23.28.39l.06.2c.05.14.01.21-.09.16zM77.53 61.18c-.04.08-.19.18-.34.24-.15.06-.23.04-.2-.04.04-.07.19-.18.34-.24.15-.05.24-.04.2.04zM79.46 60.84l.03.07c.03.06.03.17.01.23l-.12.34c-.03.06-.06.06-.09 0l-.03-.08a.363.363 0 0 1-.01-.23l.12-.34c.02-.05.06-.05.09.01zM78.51 68.26l-.01.2a.62.62 0 0 1-.18.36l-.54.5c-.09.08-.16.05-.15-.07l.02-.2a.62.62 0 0 1 .18-.36l.54-.5c.09-.08.15-.05.14.07zM66.62 68.86c.08.06.16.22.18.34l.03.19c.01.13-.03.18-.11.12s-.16-.22-.18-.35l-.03-.19c-.02-.12.03-.18.11-.11zM42.24 62.69c.18-.01.45.07.62.2l.34.26c.17.12.16.24-.02.25-.17.02-.45-.07-.62-.19l-.34-.26c-.17-.13-.16-.24.02-.26zM70.14 57.99l.03.11c.03.16 0 .4-.08.54l-.35.6c-.08.14-.17.13-.21-.03l-.03-.11c-.04-.16 0-.4.08-.54l.35-.61c.08-.13.17-.12.21.04zM67.1 56.13c.17-.01.42.09.57.21l.29.24c.15.13.14.24-.03.24-.16.01-.41-.09-.56-.22l-.3-.24c-.16-.12-.14-.22.03-.23zM63.81 25.59l-.28-.26a.592.592 0 0 0-.33-.13l-1.01-.01c-.11 0-.13.06-.06.13l.28.26c.08.07.23.13.33.13l1.01.01c.12 0 .14-.06.06-.13zM61.27 45.32l.01.25c0 .17.1.39.21.5l.67.69c.12.12.2.08.2-.09v-.25a.8.8 0 0 0-.21-.5l-.67-.69c-.12-.11-.2-.07-.21.09zM43.36 76.9l.16.17c.08.07.14.22.14.33v.73c0 .11-.06.13-.13.05l-.16-.17a.55.55 0 0 1-.14-.33v-.74c0-.09.06-.11.13-.04zM28.6 63.83c.05-.02.15-.02.23.01l.06.02c.08.02.1.07.05.08-.05.02-.15.02-.23-.01l-.06-.02c-.08-.02-.1-.05-.05-.08zM40.27 52.92c-.09-.06-.2-.2-.23-.32l-.08-.28c-.03-.12.01-.17.11-.11.1.06.2.2.23.32l.08.28c.04.12-.01.16-.11.11zM40.66 61.26l.06.11c.03.06.05.18.03.25l-.12.44c-.02.07-.06.07-.1.01l-.06-.11a.425.425 0 0 1-.03-.25l.12-.44c.02-.07.06-.08.1-.01zM18.47 66.49l-.27-.1c-.13-.05-.3-.2-.36-.32l-.42-.84c-.07-.12-.01-.18.13-.13l.27.1c.13.05.29.19.36.32l.43.84c.05.12-.01.18-.14.13zM26.11 36.02a.918.918 0 0 1-.38-.44l-.15-.39c-.07-.17 0-.25.15-.18.14.08.32.28.38.45l.15.39c.07.16 0 .24-.15.17zM73.37 26.82c.08.08.31.14.52.16.21.01.31-.06.23-.13-.07-.08-.31-.15-.52-.15-.21-.02-.32.04-.23.12zM75.13 18.72l-.08.12a.67.67 0 0 0-.06.42l.16.63c.03.12.1.13.16.02l.08-.13c.06-.11.09-.29.06-.41l-.15-.63c-.03-.13-.11-.13-.17-.02zM69.03 49.84c.02-.04.02-.12 0-.18l-.01-.05c-.02-.06-.05-.08-.07-.04-.02.04-.02.12 0 .18l.01.05c.02.06.05.08.07.04z" class="st0"/></svg>
